<?xml version="1.0" encoding="UTF-8" standalone="no"?>
<!DOCTYPE svg PUBLIC "-//W3C//DTD SVG 1.1//EN" "http://www.w3.org/Graphics/SVG/1.1/DTD/svg11.dtd">
<svg width="100%" height="100%" viewBox="0 0 103 102" version="1.1" xmlns="http://www.w3.org/2000/svg" xmlns:xlink="http://www.w3.org/1999/xlink" xml:space="preserve" xmlns:serif="http://www.serif.com/" style="fill-rule:evenodd;clip-rule:evenodd;stroke-linejoin:round;stroke-miterlimit:2;">
    <g id="Capa_2" transform="matrix(1,0,0,1,-654,-136)">
        <g id="Used">
            <path d="M711.18,186.37L711.18,186.24C711.585,183.456 713.997,181.37 716.81,181.37L725.12,181.37C725.317,181.38 725.513,181.38 725.71,181.37L725.89,181.37L726.28,181.31L726.5,181.25L726.82,181.17L727.05,181.08L727.35,180.97C727.426,180.939 727.5,180.903 727.57,180.86L727.85,180.73L728.07,180.6L728.32,180.44L728.53,180.29L728.76,180.11L728.95,179.94L729.17,179.74L729.34,179.55L729.54,179.33L729.69,179.12C729.75,179.04 729.81,178.97 729.86,178.89L730,178.66L730.15,178.41L730.26,178.17C730.26,178.08 730.35,178 730.38,177.91C730.418,177.828 730.451,177.745 730.48,177.66C730.48,177.56 730.55,177.47 730.57,177.38C730.598,177.295 730.621,177.208 730.64,177.12C730.64,177.02 730.69,176.93 730.71,176.83C730.715,176.74 730.715,176.65 730.71,176.56L730.71,175.67C730.715,175.58 730.715,175.49 730.71,175.4L730.71,175.08C730.705,175.023 730.705,174.967 730.71,174.91C730.251,172.117 727.831,170.035 725,170L717.3,170C714.692,169.998 712.403,168.202 711.78,165.67C711.776,165.644 711.776,165.616 711.78,165.59C711.78,165.46 711.72,165.34 711.7,165.21L711.7,164.49C711.695,164.443 711.695,164.397 711.7,164.35C711.697,161.29 709.248,158.743 706.19,158.62L705.67,158.62C705.477,158.63 705.283,158.63 705.09,158.62L704.89,158.62L704.52,158.56L704.3,158.5L703.97,158.42L703.74,158.33L703.44,158.22L703.22,158.12L702.94,157.98L702.73,157.85C702.64,157.803 702.553,157.749 702.47,157.69L702.03,157.36L701.84,157.19C701.77,157.12 701.69,157.06 701.63,156.99L701.45,156.8C701.39,156.73 701.32,156.66 701.26,156.58L701.1,156.37C701.04,156.29 700.98,156.22 700.93,156.14L700.79,155.91C700.737,155.83 700.691,155.747 700.65,155.66C700.65,155.58 700.57,155.5 700.53,155.43L700.41,155.16C700.376,155.078 700.346,154.995 700.32,154.91C700.281,154.819 700.247,154.725 700.22,154.63C700.191,154.545 700.167,154.458 700.15,154.37C700.15,154.27 700.15,154.18 700.08,154.08C700.075,153.99 700.075,153.9 700.08,153.81L700.08,153.51C700.075,153.417 700.075,153.323 700.08,153.23C700.075,153.147 700.075,153.063 700.08,152.98C700.085,152.897 700.08,152.98 700.08,152.92C700.08,152.86 700.08,152.92 700.08,152.87C700.076,152.797 700.076,152.723 700.08,152.65L700.08,152.16C700.477,149.37 702.892,147.277 705.71,147.28L702.41,147.28C702.116,147.326 701.818,147.35 701.52,147.35C698.388,147.35 695.81,144.772 695.81,141.64C695.81,138.842 697.866,136.436 700.63,136C680.795,137.9 663.793,151.204 657.18,170L673.1,170C675.918,169.997 678.333,172.09 678.73,174.88L678.73,175.37C678.735,175.443 678.735,175.517 678.73,175.59L678.73,176.53C678.735,176.62 678.735,176.71 678.73,176.8C678.73,176.9 678.68,176.99 678.66,177.09C678.641,177.178 678.618,177.265 678.59,177.35L678.5,177.63C678.471,177.715 678.438,177.798 678.4,177.88C678.366,177.969 678.326,178.056 678.28,178.14L678.17,178.38L678.02,178.63L677.88,178.86C677.83,178.94 677.77,179.01 677.71,179.09L677.55,179.3L677.36,179.52L677.19,179.71L676.97,179.9L676.78,180.08L676.55,180.26L676.34,180.41L676.09,180.57L675.87,180.7L675.59,180.83L675.37,180.94L675.07,181.05L674.84,181.14L674.51,181.22L674.29,181.28L673.91,181.34L673.73,181.34C673.533,181.35 673.337,181.35 673.14,181.34L669.04,181.52C666.195,181.665 663.955,184.092 664.04,186.94L664.04,187.66C664.045,187.7 664.045,187.74 664.04,187.78C663.832,189.359 662.972,190.782 661.67,191.7C661.659,191.754 661.654,191.81 661.654,191.865C661.654,192.291 661.977,192.653 662.4,192.7L663.55,192.7L663.77,192.76L664.1,192.84L664.33,192.93L664.63,193.04L664.86,193.15L665.13,193.28L665.35,193.41L665.6,193.57L665.81,193.72L666.04,193.9L666.23,194.07L666.45,194.27L666.62,194.46L666.81,194.68L666.97,194.89C667.03,194.97 667.09,195.04 667.14,195.12L667.28,195.35L667.43,195.6L667.54,195.84C667.54,195.93 667.63,196.01 667.66,196.1C667.698,196.182 667.731,196.265 667.76,196.35C667.76,196.44 667.83,196.54 667.85,196.63C667.87,196.72 667.85,196.81 667.92,196.89C667.99,196.97 667.92,197.08 667.99,197.18C667.995,197.27 667.995,197.36 667.99,197.45L667.99,198.39C667.995,198.463 667.995,198.537 667.99,198.61L667.99,199.1C667.593,201.89 665.178,203.983 662.36,203.98L657.36,203.98C660.515,213.017 666.138,220.993 673.59,227C678.379,230.829 683.82,233.762 689.65,235.66C689.008,234.713 688.665,233.595 688.665,232.451C688.665,229.967 690.283,227.753 692.65,227C693.198,226.834 693.767,226.75 694.34,226.75L725.11,226.75C725.51,226.752 725.909,226.796 726.3,226.88L726.79,226.75C726.94,226.75 727.08,226.65 727.23,226.6L727.37,226.53C727.46,226.53 727.55,226.46 727.64,226.41L727.8,226.33L728.04,226.19L728.2,226.09L728.42,225.95L728.57,225.82L728.77,225.67L728.92,225.53C728.985,225.482 729.045,225.429 729.1,225.37L729.25,225.22L729.41,225.04C729.456,224.989 729.5,224.936 729.54,224.88L729.69,224.69C729.69,224.63 729.77,224.57 729.81,224.52L729.95,224.32C729.95,224.26 730.02,224.2 730.05,224.13L730.17,223.92L730.26,223.73C730.299,223.66 730.333,223.586 730.36,223.51C730.393,223.446 730.419,223.379 730.44,223.31C730.473,223.236 730.499,223.159 730.52,223.08C730.548,223.012 730.571,222.941 730.59,222.87L730.65,222.64C730.65,222.57 730.65,222.49 730.7,222.42C730.75,222.35 730.7,222.26 730.7,222.18L730.7,221.96C730.705,221.877 730.705,221.793 730.7,221.71C730.705,221.633 730.705,221.557 730.7,221.48C730.705,221.4 730.705,221.32 730.7,221.24C730.705,221.143 730.705,221.047 730.7,220.95L730.7,220.44C730.7,220.3 730.7,220.17 730.62,220.03C729.945,217.433 727.573,215.612 724.89,215.63L707.09,215.63C706.897,215.64 706.703,215.64 706.51,215.63C706.443,215.635 706.377,215.635 706.31,215.63L705.94,215.58L705.72,215.52C705.61,215.52 705.5,215.52 705.39,215.43L705.16,215.35L704.86,215.24L704.64,215.13L704.36,215L704.15,214.87C704.06,214.823 703.973,214.769 703.89,214.71L703.45,214.38L703.26,214.21C703.19,214.14 703.11,214.08 703.05,214.01L702.87,213.82C702.81,213.74 702.74,213.67 702.68,213.6L702.52,213.39C702.458,213.314 702.401,213.234 702.35,213.15L702.21,212.93C702.157,212.85 702.111,212.767 702.07,212.68C702.07,212.6 701.99,212.52 701.95,212.44L701.83,212.18C701.796,212.098 701.766,212.015 701.74,211.93C701.74,211.83 701.67,211.74 701.64,211.65C701.612,211.565 701.589,211.478 701.57,211.39C701.57,211.29 701.57,211.2 701.5,211.1C701.495,211.01 701.495,210.92 701.5,210.83L701.5,210.53C701.495,210.437 701.495,210.343 701.5,210.25C701.495,210.163 701.495,210.077 701.5,209.99C701.501,209.973 701.501,209.957 701.5,209.94C701.499,209.923 701.5,209.94 701.5,209.89C701.504,209.817 701.504,209.743 701.5,209.67L701.5,209.18C701.896,206.389 704.311,204.292 707.13,204.29L707.32,204.29C707.631,204.273 707.877,204.012 707.877,203.701C707.877,203.67 707.875,203.64 707.87,203.61C706.136,202.688 705,200.929 704.87,198.97L704.87,198.59L704.87,198.52L704.87,198.03C704.87,197.88 704.87,197.73 704.94,197.57C704.935,197.5 704.935,197.43 704.94,197.36C704.957,197.265 704.981,197.172 705.01,197.08C705.01,196.98 705.07,196.88 705.11,196.78C705.15,196.68 705.11,196.69 705.11,196.65C705.943,194.439 708.068,192.966 710.43,192.96C711.377,192.892 712.12,192.094 712.12,191.145C712.12,190.942 712.086,190.741 712.02,190.55C711.548,189.884 711.228,189.123 711.08,188.32C711.08,188.18 711.08,188.04 711.01,187.89C711.005,187.843 711.005,187.797 711.01,187.75L711.01,187.35C711.01,187.21 711.01,187.29 711.01,187.27L711.01,187.2L711.01,186.9L711.18,186.37ZM688.85,192.76L682.36,192.76C682.28,192.763 682.201,192.765 682.121,192.765C678.994,192.765 676.421,190.192 676.421,187.065C676.421,183.938 678.994,181.365 682.121,181.365C682.201,181.365 682.28,181.367 682.36,181.37L688.85,181.37C688.93,181.367 689.009,181.365 689.089,181.365C692.216,181.365 694.789,183.938 694.789,187.065C694.789,190.192 692.216,192.765 689.089,192.765C689.009,192.765 688.93,192.763 688.85,192.76Z" style="fill:rgb(41,171,226);fill-rule:nonzero;"/>
            <path d="M708.71,147.17L737.66,147.17C729.85,140.818 720.324,136.929 710.3,136C712.722,136.71 714.397,138.947 714.397,141.47C714.397,144.592 711.832,147.163 708.71,147.17Z" style="fill:rgb(41,171,226);fill-rule:nonzero;"/>
            <path d="M730.75,231.44C730.386,229.33 728.864,227.596 726.82,226.96C726.659,226.909 726.496,226.869 726.33,226.84C725.939,226.756 725.54,226.712 725.14,226.71L694.37,226.71C693.797,226.71 693.228,226.794 692.68,226.96C690.313,227.713 688.695,229.927 688.695,232.411C688.695,233.555 689.038,234.673 689.68,235.62C694.791,237.272 700.129,238.112 705.5,238.11L707.18,238.11L706.84,238.11C715.238,237.896 723.454,235.605 730.75,231.44Z" style="fill:white;fill-rule:nonzero;"/>
            <path d="M702.22,147.17L708.71,147.17C711.832,147.163 714.397,144.592 714.397,141.47C714.397,138.947 712.722,136.71 710.3,136C709.784,135.846 709.248,135.769 708.71,135.77L702.22,135.77C701.682,135.77 701.146,135.847 700.63,136C698.208,136.71 696.533,138.947 696.533,141.47C696.533,144.592 699.098,147.163 702.22,147.17Z" style="fill:white;fill-rule:nonzero;"/>
            <path d="M756.34,181.37C755.449,173.216 752.609,165.395 748.06,158.57C745.185,154.27 741.679,150.426 737.66,147.17L705.52,147.17C702.702,147.167 700.287,149.26 699.89,152.05L699.89,152.54C699.886,152.613 699.886,152.687 699.89,152.76C699.894,152.833 699.89,152.76 699.89,152.81L699.89,152.87C699.885,152.953 699.885,153.037 699.89,153.12C699.885,153.213 699.885,153.307 699.89,153.4L699.89,153.7C699.885,153.79 699.885,153.88 699.89,153.97C699.89,154.07 699.94,154.16 699.96,154.26C699.977,154.348 700.001,154.435 700.03,154.52C700.057,154.615 700.091,154.709 700.13,154.8C700.156,154.885 700.186,154.968 700.22,155.05L700.34,155.32C700.34,155.39 700.41,155.47 700.46,155.55C700.501,155.637 700.547,155.72 700.6,155.8L700.74,156.03C700.79,156.11 700.85,156.18 700.91,156.26L701.07,156.47C701.13,156.55 701.2,156.62 701.26,156.69L701.44,156.88C701.5,156.95 701.58,157.01 701.65,157.08L701.84,157.25L702.28,157.58C702.363,157.639 702.45,157.693 702.54,157.74L702.75,157.87L703.03,158.01L703.25,158.11L703.55,158.22L703.78,158.31L704.11,158.39L704.33,158.45L704.7,158.51L704.9,158.51C705.093,158.52 705.287,158.52 705.48,158.51L706,158.51C709.058,158.633 711.507,161.18 711.51,164.24C711.505,164.287 711.505,164.333 711.51,164.38L711.51,165.1C711.51,165.23 711.51,165.35 711.59,165.48C711.586,165.506 711.586,165.534 711.59,165.56C712.213,168.092 714.502,169.888 717.11,169.89L725,169.89C727.866,169.864 730.351,171.944 730.83,174.77C730.825,174.827 730.825,174.883 730.83,174.94L730.83,175.26C730.835,175.35 730.835,175.44 730.83,175.53L730.83,176.42C730.835,176.51 730.835,176.6 730.83,176.69C730.83,176.79 730.83,176.88 730.76,176.98C730.741,177.068 730.718,177.155 730.69,177.24C730.69,177.33 730.63,177.42 730.6,177.52C730.571,177.605 730.538,177.688 730.5,177.77C730.5,177.86 730.42,177.94 730.38,178.03L730.27,178.27L730.12,178.52L729.98,178.75C729.98,178.83 729.87,178.9 729.81,178.98L729.66,179.19L729.46,179.41L729.29,179.6L729.07,179.8L728.88,179.97L728.65,180.15L728.44,180.3L728.19,180.46L727.97,180.59L727.69,180.72C727.62,180.763 727.546,180.799 727.47,180.83L727.17,180.94L726.94,181.03L726.62,181.11L726.4,181.17L726.01,181.23L725.83,181.23C725.633,181.24 725.437,181.24 725.24,181.23L716.93,181.23C714.117,181.23 711.705,183.316 711.3,186.1C711.295,186.143 711.295,186.187 711.3,186.23L711.3,187.07L711.3,187.15L711.3,187.55C711.295,187.597 711.295,187.643 711.3,187.69C711.3,187.84 711.3,187.98 711.37,188.12C711.518,188.923 711.838,189.684 712.31,190.35C712.376,190.541 712.41,190.742 712.41,190.945C712.41,191.894 711.667,192.692 710.72,192.76C708.358,192.766 706.233,194.239 705.4,196.45C705.394,196.493 705.394,196.537 705.4,196.58C705.4,196.68 705.33,196.78 705.3,196.88C705.27,196.98 705.3,197.06 705.23,197.16C705.225,197.23 705.225,197.3 705.23,197.37C705.23,197.53 705.23,197.68 705.16,197.83L705.16,198.32C705.16,198.48 705.16,198.37 705.16,198.39L705.16,198.77C705.29,200.729 706.426,202.488 708.16,203.41C708.165,203.44 708.167,203.47 708.167,203.501C708.167,203.812 707.921,204.073 707.61,204.09L707.42,204.09C704.601,204.092 702.186,206.189 701.79,208.98L701.79,209.47C701.794,209.543 701.794,209.617 701.79,209.69C701.786,209.763 701.79,209.69 701.79,209.74C701.791,209.757 701.791,209.773 701.79,209.79C701.785,209.877 701.785,209.963 701.79,210.05C701.785,210.143 701.785,210.237 701.79,210.33L701.79,210.63C701.785,210.72 701.785,210.81 701.79,210.9C701.79,211 701.84,211.09 701.86,211.19C701.879,211.278 701.902,211.365 701.93,211.45C701.93,211.54 701.99,211.63 702.03,211.73C702.056,211.815 702.086,211.898 702.12,211.98L702.24,212.24C702.24,212.32 702.31,212.4 702.36,212.48C702.401,212.567 702.447,212.65 702.5,212.73L702.64,212.95C702.691,213.034 702.748,213.114 702.81,213.19L702.97,213.4C703.03,213.47 703.1,213.54 703.16,213.62L703.34,213.81C703.4,213.88 703.48,213.94 703.55,214.01L703.74,214.18L704.18,214.51C704.263,214.569 704.35,214.623 704.44,214.67L704.65,214.8L704.93,214.93L705.15,215.04L705.45,215.15L705.68,215.23C705.79,215.23 705.9,215.29 706.01,215.32L706.23,215.38L706.6,215.43C706.667,215.435 706.733,215.435 706.8,215.43C706.993,215.44 707.187,215.44 707.38,215.43L725,215.43C727.683,215.412 730.055,217.233 730.73,219.83C730.73,219.97 730.79,220.1 730.81,220.24L730.81,220.75C730.815,220.847 730.815,220.943 730.81,221.04C730.815,221.12 730.815,221.2 730.81,221.28C730.815,221.357 730.815,221.433 730.81,221.51C730.815,221.593 730.815,221.677 730.81,221.76L730.81,222.22C730.81,222.3 730.81,222.37 730.76,222.44L730.7,222.67C730.681,222.741 730.658,222.812 730.63,222.88C730.609,222.959 730.583,223.036 730.55,223.11C730.529,223.179 730.503,223.246 730.47,223.31C730.443,223.386 730.409,223.46 730.37,223.53L730.28,223.72L730.16,223.93C730.16,224 730.09,224.06 730.06,224.12L729.92,224.32C729.92,224.37 729.85,224.43 729.8,224.49L729.65,224.68C729.61,224.736 729.566,224.789 729.52,224.84L729.36,225.02L729.21,225.17C729.155,225.229 729.095,225.282 729.03,225.33L728.88,225.47L728.68,225.62L728.53,225.75L728.31,225.89L728.15,225.99L727.91,226.13L727.75,226.21C727.66,226.21 727.57,226.29 727.48,226.33L727.34,226.4C727.19,226.45 727.05,226.51 726.9,226.55L726.41,226.68C726.576,226.709 726.739,226.749 726.9,226.8C728.944,227.436 730.466,229.17 730.83,231.28C733.143,229.961 735.35,228.463 737.43,226.8L737.74,226.55C741.684,223.361 745.132,219.603 747.97,215.4C752.57,208.588 755.458,200.766 756.39,192.6C756.606,190.667 756.716,188.725 756.72,186.78C756.689,184.971 756.562,183.165 756.34,181.37Z" style="fill:rgb(0,146,69);fill-rule:nonzero;"/>
            <path d="M676.93,179.87L677.15,179.68L677.32,179.49L677.51,179.27L677.67,179.06C677.73,178.98 677.79,178.91 677.84,178.83L677.98,178.6L678.13,178.35L678.24,178.11C678.286,178.026 678.326,177.939 678.36,177.85C678.398,177.768 678.431,177.685 678.46,177.6L678.55,177.32C678.578,177.235 678.601,177.148 678.62,177.06C678.62,176.96 678.62,176.87 678.69,176.77C678.695,176.68 678.695,176.59 678.69,176.5L678.69,175.56C678.695,175.487 678.695,175.413 678.69,175.34L678.69,174.85C678.282,172.087 675.893,170.014 673.1,170L657.18,170C654.626,177.308 653.755,185.099 654.63,192.79C655.066,196.679 655.952,200.505 657.27,204.19L662.27,204.19C665.088,204.193 667.503,202.1 667.9,199.31L667.9,198.82C667.905,198.747 667.905,198.673 667.9,198.6L667.9,197.66C667.905,197.57 667.905,197.48 667.9,197.39C667.9,197.29 667.9,197.2 667.83,197.1C667.76,197 667.83,196.93 667.76,196.84C667.69,196.75 667.7,196.65 667.67,196.56C667.641,196.475 667.608,196.392 667.57,196.31C667.57,196.22 667.49,196.14 667.45,196.05L667.34,195.81L667.19,195.56L667.05,195.33C667.05,195.25 666.94,195.18 666.88,195.1L666.72,194.89L666.53,194.67L666.36,194.48L666.14,194.28L665.95,194.11L665.72,193.93L665.51,193.78L665.26,193.62L665.04,193.49L664.77,193.36L664.54,193.25L664.24,193.14L664,193L663.67,192.92L663.45,192.86L662.3,192.86C661.877,192.813 661.554,192.451 661.554,192.025C661.554,191.97 661.559,191.914 661.57,191.86C662.872,190.942 663.732,189.519 663.94,187.94C663.945,187.9 663.945,187.86 663.94,187.82L663.94,187C663.855,184.152 666.095,181.725 668.94,181.58L673.04,181.4C673.237,181.41 673.433,181.41 673.63,181.4L673.81,181.4L674.19,181.34L674.41,181.28L674.74,181.2L675,181L675.3,180.89L675.52,180.78L675.8,180.65L676.02,180.52L676.27,180.36L676.48,180.21L676.71,180.03L676.93,179.87Z" style="fill:rgb(0,146,69);fill-rule:nonzero;"/>
            <path d="M688.85,181.37L682.36,181.37C682.28,181.367 682.201,181.365 682.121,181.365C678.994,181.365 676.421,183.938 676.421,187.065C676.421,190.192 678.994,192.765 682.121,192.765C682.201,192.765 682.28,192.763 682.36,192.76L688.85,192.76C688.93,192.763 689.009,192.765 689.089,192.765C692.216,192.765 694.789,190.192 694.789,187.065C694.789,183.938 692.216,181.365 689.089,181.365C689.009,181.365 688.93,181.367 688.85,181.37Z" style="fill:rgb(0,146,69);fill-rule:nonzero;"/>
            <path d="M1653.22,72.6C1653.22,74.317 1651.81,75.73 1650.09,75.73C1648.37,75.73 1646.96,74.317 1646.96,72.6C1646.96,70.883 1648.37,69.47 1650.09,69.47C1651.81,69.47 1653.22,70.883 1653.22,72.6ZM544.81,302.36C544.81,304.077 543.397,305.49 541.68,305.49C539.963,305.49 538.55,304.077 538.55,302.36C538.55,300.643 539.963,299.23 541.68,299.23C543.397,299.23 544.81,300.643 544.81,302.36ZM12.18,39.38C12.18,41.097 10.767,42.51 9.05,42.51C7.333,42.51 5.92,41.097 5.92,39.38C5.92,37.663 7.333,36.25 9.05,36.25C10.767,36.25 12.18,37.663 12.18,39.38ZM1227.23,16.68C1227.23,18.397 1225.82,19.81 1224.1,19.81C1222.38,19.81 1220.97,18.397 1220.97,16.68C1220.97,14.963 1222.38,13.55 1224.1,13.55C1225.82,13.55 1227.23,14.963 1227.23,16.68ZM716.41,366.82C716.41,368.537 714.997,369.95 713.28,369.95C711.563,369.95 710.15,368.537 710.15,366.82C710.15,365.103 711.563,363.69 713.28,363.69C714.997,363.69 716.41,365.103 716.41,366.82ZM1447.69,81.32C1446.83,81.32 1446.12,82.029 1446.12,82.89C1446.12,83.751 1446.83,84.46 1447.69,84.46C1448.55,84.46 1449.26,83.751 1449.26,82.89L1449.26,82.88C1449.26,82.024 1448.56,81.32 1447.7,81.32C1447.7,81.32 1447.69,81.32 1447.69,81.32ZM164.91,323.77C164.058,323.775 163.36,324.478 163.36,325.33C163.36,326.186 164.064,326.89 164.92,326.89C165.776,326.89 166.48,326.186 166.48,325.33C166.48,325.33 166.48,325.33 166.48,325.33C166.48,324.474 165.776,323.77 164.92,323.77C164.917,323.77 164.913,323.77 164.91,323.77ZM1.56,354.51C0.708,354.515 0.01,355.218 0.01,356.07C0.01,356.926 0.714,357.63 1.57,357.63C2.426,357.63 3.13,356.926 3.13,356.07C3.13,356.07 3.13,356.07 3.13,356.07C3.13,355.214 2.426,354.51 1.57,354.51C1.567,354.51 1.563,354.51 1.56,354.51ZM754,0C753.451,0 753,0.451 753,1C753,1.549 753.451,2 754,2C754.549,2 755,1.549 755,1C755,0.451 754.549,0 754,0ZM9.05,262.93C8.501,262.93 8.05,263.381 8.05,263.93C8.05,264.479 8.501,264.93 9.05,264.93C9.599,264.93 10.05,264.479 10.05,263.93C10.05,263.381 9.599,262.93 9.05,262.93ZM488.36,35.29C487.926,35.408 487.622,35.805 487.622,36.255C487.622,36.705 487.926,37.102 488.36,37.22C488.445,37.243 488.534,37.255 488.622,37.255C489.171,37.255 489.622,36.804 489.622,36.255C489.622,35.706 489.171,35.255 488.622,35.255C488.534,35.255 488.445,35.267 488.36,35.29ZM1022.36,10.15C1021.81,10.15 1021.36,10.601 1021.36,11.15C1021.36,11.699 1021.81,12.15 1022.36,12.15C1022.91,12.15 1023.36,11.699 1023.36,11.15C1023.36,11.15 1023.36,11.15 1023.36,11.15C1023.36,10.601 1022.91,10.15 1022.36,10.15C1022.35,10.15 1022.35,10.15 1022.34,10.15L1022.36,10.15ZM644.71,250.57C644.161,250.57 643.71,251.021 643.71,251.57C643.71,252.119 644.161,252.57 644.71,252.57C645.259,252.57 645.71,252.119 645.71,251.57C645.71,251.021 645.259,250.57 644.71,250.57ZM327.26,315.9C326.711,315.9 326.26,316.351 326.26,316.9C326.26,317.449 326.711,317.9 327.26,317.9C327.809,317.9 328.26,317.449 328.26,316.9C328.26,316.351 327.809,315.9 327.26,315.9ZM1135.75,333.24C1134.9,333.245 1134.2,333.948 1134.2,334.8C1134.2,335.656 1134.9,336.36 1135.76,336.36C1136.62,336.36 1137.32,335.656 1137.32,334.8C1137.32,334.8 1137.32,334.8 1137.32,334.8C1137.32,333.944 1136.62,333.24 1135.76,333.24C1135.76,333.24 1135.75,333.24 1135.75,333.24ZM1671.32,356.07C1670.46,356.07 1669.76,356.774 1669.76,357.63C1669.76,358.486 1670.46,359.19 1671.32,359.19C1672.18,359.19 1672.88,358.486 1672.88,357.63C1672.88,356.774 1672.18,356.07 1671.32,356.07Z" style="fill:url(#_Linear1);fill-rule:nonzero;"/>
        </g>
    </g>
    <defs>
        <linearGradient id="_Linear1" x1="0" y1="0" x2="1" y2="0" gradientUnits="userSpaceOnUse" gradientTransform="matrix(1672.88,0,0,1672.88,0,184.97)"><stop offset="0" style="stop-color:rgb(245,180,36);stop-opacity:1"/><stop offset="0.1" style="stop-color:rgb(252,238,33);stop-opacity:0.4"/><stop offset="0.2" style="stop-color:rgb(245,180,36);stop-opacity:1"/><stop offset="0.3" style="stop-color:rgb(252,238,33);stop-opacity:0.4"/><stop offset="0.4" style="stop-color:rgb(245,180,36);stop-opacity:1"/><stop offset="0.5" style="stop-color:rgb(252,238,33);stop-opacity:0.4"/><stop offset="0.6" style="stop-color:rgb(245,180,36);stop-opacity:1"/><stop offset="0.7" style="stop-color:rgb(252,238,33);stop-opacity:0.4"/><stop offset="0.8" style="stop-color:rgb(245,180,36);stop-opacity:1"/><stop offset="0.9" style="stop-color:rgb(252,238,33);stop-opacity:0.4"/><stop offset="1" style="stop-color:rgb(245,180,36);stop-opacity:1"/></linearGradient>
    </defs>
</svg>
