<?xml version="1.0" encoding="UTF-8" standalone="no"?>
<!DOCTYPE svg PUBLIC "-//W3C//DTD SVG 1.1//EN" "http://www.w3.org/Graphics/SVG/1.1/DTD/svg11.dtd">
<svg width="100%" height="100%" viewBox="0 0 158 158" version="1.1" xmlns="http://www.w3.org/2000/svg" xmlns:xlink="http://www.w3.org/1999/xlink" xml:space="preserve" xmlns:serif="http://www.serif.com/" style="fill-rule:evenodd;clip-rule:evenodd;stroke-linejoin:round;stroke-miterlimit:2;">
    <g id="Capa_2" transform="matrix(1,0,0,1,-966,-160)">
        <g id="Used">
            <path d="M1081.89,246.06C1081.81,246.065 1081.72,246.065 1081.64,246.06C1081.48,246.06 1081.32,246.06 1081.17,245.98L1080.9,245.91C1080.76,245.883 1080.62,245.846 1080.48,245.8L1080.19,245.7L1079.82,245.56L1079.54,245.43C1079.42,245.376 1079.3,245.316 1079.19,245.25L1078.92,245.09L1078.59,244.89L1078.33,244.7L1078.04,244.47L1077.8,244.26L1077.53,244.01L1077.31,243.77C1077.23,243.68 1077.14,243.59 1077.06,243.49L1076.87,243.23L1076.65,242.93L1076.48,242.65L1076.29,242.33C1076.29,242.24 1076.2,242.14 1076.15,242.04C1076.1,241.94 1076.04,241.82 1075.99,241.7C1075.94,241.58 1075.92,241.49 1075.88,241.39C1075.84,241.29 1075.79,241.15 1075.76,241.04C1075.73,240.93 1075.7,240.82 1075.67,240.71L1075.58,240.34L1075.58,238.82C1075.58,238.73 1075.58,238.64 1075.58,238.55C1075.57,238.414 1075.57,238.276 1075.58,238.14C1075.58,238.067 1075.58,237.993 1075.58,237.92C1076.09,234.407 1079.13,231.773 1082.68,231.77L1123.8,231.77C1123.38,226.913 1122.51,222.106 1121.2,217.41L1089.6,217.41C1086.05,217.406 1083.01,214.767 1082.5,211.25L1082.5,210.63C1082.5,210.54 1082.5,210.45 1082.5,210.36L1082.5,209.18C1082.5,209.05 1082.5,208.95 1082.56,208.84C1082.62,208.73 1082.56,208.59 1082.64,208.47L1082.73,208.14C1082.73,208.03 1082.81,207.91 1082.85,207.79C1082.89,207.67 1082.92,207.58 1082.97,207.48C1083.01,207.367 1083.06,207.257 1083.12,207.15C1083.16,207.046 1083.21,206.946 1083.27,206.85C1083.32,206.74 1083.38,206.633 1083.45,206.53L1083.62,206.25L1083.84,205.95C1083.91,205.86 1083.97,205.77 1084.04,205.69C1084.12,205.592 1084.19,205.499 1084.28,205.41L1084.5,205.17L1084.77,204.92L1085.01,204.71L1085.31,204.48L1085.57,204.29L1085.89,204.09L1086.16,203.93C1086.27,203.863 1086.39,203.806 1086.51,203.76L1086.79,203.62L1087.17,203.48L1087.45,203.38C1087.59,203.334 1087.73,203.297 1087.87,203.27L1088.14,203.2C1088.3,203.2 1088.46,203.2 1088.62,203.12L1088.86,203.12C1089.11,203.105 1089.35,203.105 1089.6,203.12L1115.6,203.12C1113,198.005 1109.86,193.189 1106.21,188.76L1059,188.76C1055.45,188.756 1052.41,186.115 1051.91,182.6C1051.9,182.53 1051.9,182.46 1051.91,182.39L1051.91,181.98C1051.91,181.89 1051.91,181.8 1051.91,181.71C1051.9,181.62 1051.91,181.71 1051.91,181.64C1051.91,181.57 1051.91,181.64 1051.91,181.58L1051.91,180.19L1052,179.82C1052,179.71 1052.05,179.6 1052.08,179.49C1052.11,179.38 1052.16,179.26 1052.21,179.14C1052.26,179.02 1052.28,178.93 1052.32,178.83C1052.37,178.714 1052.42,178.6 1052.48,178.49C1052.48,178.39 1052.57,178.29 1052.62,178.19C1052.67,178.09 1052.75,177.98 1052.81,177.88L1052.98,177.6C1053.05,177.496 1053.12,177.396 1053.2,177.3C1053.26,177.209 1053.32,177.122 1053.39,177.04C1053.47,176.94 1053.56,176.85 1053.64,176.76L1053.86,176.52C1053.94,176.432 1054.04,176.348 1054.13,176.27C1054.21,176.2 1054.28,176.12 1054.37,176.05C1054.46,175.971 1054.56,175.898 1054.66,175.83L1054.92,175.64L1055.24,175.44L1055.51,175.27L1055.86,175.1L1056.14,174.97C1056.26,174.916 1056.39,174.869 1056.52,174.83L1056.81,174.72L1057.23,174.61L1057.5,174.54L1057.97,174.47L1090.61,174.47C1077.36,165.099 1061.52,160.076 1045.29,160.1C1044.29,160.1 1043.29,160.1 1042.29,160.17C1042.52,160.191 1042.74,160.228 1042.96,160.28L1043.17,160.34L1043.61,160.46L1043.85,160.55L1044.23,160.69L1044.48,160.81L1044.82,160.98L1045.07,161.13L1045.38,161.31L1045.9,161.7L1046.13,161.9L1046.39,162.13L1046.6,162.35C1046.68,162.428 1046.76,162.512 1046.83,162.6L1047.02,162.84L1047.24,163.11C1047.29,163.2 1047.35,163.28 1047.41,163.37L1047.59,163.66L1047.74,163.93L1047.9,164.24L1048.02,164.52C1048.02,164.63 1048.11,164.74 1048.15,164.85L1048.25,165.15C1048.25,165.26 1048.32,165.37 1048.35,165.49C1048.38,165.61 1048.35,165.69 1048.42,165.79L1048.48,166.15C1048.48,166.25 1048.48,166.36 1048.53,166.46L1048.53,167.15L1048.53,167.29L1048.53,167.51C1048.54,167.59 1048.54,167.67 1048.53,167.75C1048.53,167.83 1048.53,167.84 1048.53,167.89L1048.53,168.24C1048.53,168.36 1048.53,168.47 1048.48,168.58L1048.39,168.99L1048.33,169.21C1047.47,172.306 1044.63,174.466 1041.42,174.47L999.96,174.47C994.185,178.54 988.985,183.371 984.5,188.83L1027.82,188.83C1031.37,188.833 1034.41,191.467 1034.92,194.98L1034.92,195.6C1034.91,195.69 1034.91,195.78 1034.92,195.87C1034.92,195.96 1034.92,195.92 1034.92,195.94L1034.92,196.01L1034.92,197.4C1034.92,197.51 1034.86,197.64 1034.83,197.76C1034.8,197.88 1034.83,197.98 1034.75,198.09L1034.63,198.44L1034.51,198.76L1034.36,199.09L1034.21,199.39C1034.15,199.497 1034.09,199.6 1034.02,199.7C1033.97,199.8 1033.91,199.897 1033.85,199.99L1033.64,200.28L1033.44,200.55L1033.19,200.82L1032.98,201.06L1032.7,201.31L1032.47,201.53L1032.17,201.76L1031.91,201.95L1031.58,202.15L1031.32,202.31L1030.97,202.48L1030.69,202.62L1030.31,202.76L1030.02,202.86L1029.61,202.97L1029.33,203.04L1028.86,203.11L1028.62,203.11C1028.37,203.125 1028.13,203.125 1027.88,203.11L975.2,203.11C972.868,207.701 970.996,212.511 969.61,217.47L996.84,217.47C998.508,217.463 1000.13,218.044 1001.41,219.11C1001.94,219.551 1002.41,220.066 1002.8,220.64C1003.06,221.021 1003.28,221.426 1003.46,221.85C1003.83,222.737 1004.02,223.689 1004.02,224.65C1004.03,226.318 1003.45,227.937 1002.38,229.22C1002.24,229.39 1002.08,229.57 1001.92,229.73C1000.58,231.078 998.745,231.835 996.84,231.83L967,231.83C966.81,234.09 966.7,236.38 966.7,238.69C966.7,241.22 966.83,243.69 967.06,246.19L990.45,246.19C993.999,246.193 997.041,248.827 997.55,252.34C997.554,252.413 997.554,252.487 997.55,252.56C997.56,252.693 997.56,252.827 997.55,252.96L997.55,254.04C997.55,254.15 997.55,254.29 997.5,254.42C997.45,254.55 997.5,254.65 997.5,254.76L997.41,255.13C997.41,255.24 997.41,255.35 997.32,255.46C997.23,255.57 997.24,255.69 997.2,255.81C997.16,255.93 997.13,256.02 997.09,256.12C997.05,256.22 996.98,256.35 996.93,256.46L996.79,256.76L996.6,257.07L996.43,257.35C996.36,257.46 996.28,257.55 996.21,257.65L996.02,257.91C995.94,258.01 995.85,258.1 995.77,258.19L995.55,258.43L995.28,258.68C995.2,258.75 995.12,258.83 995.04,258.89L994.75,259.12L994.49,259.31L994.17,259.51L993.89,259.68L993.55,259.85L993.26,259.98L992.89,260.12L992.6,260.23L992.19,260.33L991.91,260.41L991.44,260.48L969.79,260.48C974.775,277.649 985.453,292.623 1000.06,302.93L1038.65,302.93C1041.86,302.929 1044.7,305.086 1045.56,308.18C1045.57,308.247 1045.57,308.313 1045.56,308.38C1045.56,308.52 1045.63,308.66 1045.66,308.81C1045.69,308.96 1045.66,309.03 1045.66,309.15L1045.66,309.5C1045.66,309.543 1045.66,309.587 1045.66,309.63L1045.66,311.15C1045.65,311.264 1045.63,311.378 1045.6,311.49L1045.54,311.78C1045.54,311.89 1045.49,312 1045.46,312.1L1045.37,312.38C1045.37,312.49 1045.3,312.59 1045.26,312.69C1045.22,312.79 1045.18,312.87 1045.15,312.96L1045.01,313.26C1045.01,313.35 1044.92,313.43 1044.88,313.52L1044.71,313.8L1044.56,314.04C1044.5,314.134 1044.44,314.224 1044.37,314.31C1044.32,314.391 1044.26,314.467 1044.2,314.54C1044.13,314.628 1044.07,314.711 1043.99,314.79L1043.81,315L1043.57,315.24L1043.37,315.43L1043.12,315.65C1043.04,315.71 1042.98,315.77 1042.9,315.82L1042.62,316.02L1042.4,316.17L1042.1,316.35L1041.87,316.48L1041.53,316.64L1041.31,316.74L1040.92,316.88L1040.72,316.95C1040.52,317.02 1040.32,317.07 1040.12,317.12C1041.83,317.23 1043.55,317.29 1045.29,317.29C1068.67,317.311 1090.88,306.888 1105.8,288.89L1046.51,288.89L1046.05,288.82L1045.77,288.75L1045.35,288.64L1045.07,288.53C1044.94,288.494 1044.81,288.447 1044.69,288.39L1044.41,288.26L1044.06,288.09L1043.79,287.93L1043.47,287.73L1043.21,287.53L1042.91,287.31L1042.67,287.09L1042.4,286.84L1042.18,286.6L1041.94,286.32C1041.87,286.24 1041.81,286.15 1041.74,286.06C1041.66,285.968 1041.59,285.871 1041.53,285.77L1041.35,285.48L1041.17,285.17L1041.02,284.87L1040.87,284.54L1040.75,284.22L1040.63,283.87C1040.63,283.76 1040.57,283.65 1040.55,283.54C1040.53,283.43 1040.48,283.3 1040.46,283.18C1040.44,283.06 1040.46,282.95 1040.46,282.83L1040.4,282.46L1040.4,280.76C1040.9,277.245 1043.95,274.609 1047.5,274.61L1087.78,274.61C1091.51,274.588 1094.57,271.512 1094.57,267.78C1094.57,267.76 1094.57,267.74 1094.57,267.72C1094.57,267.667 1094.57,267.613 1094.57,267.56C1094.57,267.473 1094.57,267.387 1094.57,267.3C1094.56,267.167 1094.56,267.033 1094.57,266.9L1094.57,266.65C1094.57,266.48 1094.63,266.31 1094.67,266.14C1095.43,262.904 1098.35,260.599 1101.67,260.6L1121,260.6C1122.35,255.908 1123.26,251.101 1123.72,246.24L1082.66,246.24C1082.4,246.197 1082.14,246.137 1081.89,246.06Z" style="fill:rgb(114,78,47);fill-rule:nonzero;"/>
            <path d="M1041.52,174.3C1044.73,174.296 1047.57,172.136 1048.43,169.04L1048.49,168.82L1048.58,168.41C1048.58,168.3 1048.58,168.18 1048.63,168.07C1048.68,167.96 1048.63,167.84 1048.63,167.72L1048.63,167.58C1048.63,167.5 1048.63,167.42 1048.63,167.34L1048.63,166.29C1048.63,166.19 1048.63,166.08 1048.58,165.98L1048.52,165.62C1048.52,165.52 1048.52,165.42 1048.45,165.32C1048.38,165.22 1048.38,165.09 1048.35,164.98L1048.25,164.68C1048.25,164.57 1048.17,164.46 1048.12,164.35L1048,164.07L1047.84,163.76L1047.69,163.49L1047.51,163.2C1047.45,163.11 1047.39,163.03 1047.34,162.94L1047.12,162.67L1046.93,162.43C1046.86,162.342 1046.78,162.258 1046.7,162.18L1046.49,161.96L1046.23,161.73L1046,161.53L1045.48,161.14L1045.17,160.96L1044.92,160.81L1044.58,160.64L1044.33,160.52L1043.95,160.38L1043.71,160.29L1043.27,160.17L1043.06,160.11C1042.84,160.058 1042.62,160.021 1042.39,160C1027.18,160.542 1012.46,165.513 1000.04,174.3L1041.52,174.3Z" style="fill:rgb(177,127,81);fill-rule:nonzero;"/>
            <path d="M1101.75,260.46C1098.42,260.459 1095.51,262.764 1094.75,266C1093.99,269.236 1094.75,266 1094.75,266C1094.75,266.17 1094.68,266.34 1094.65,266.51L1094.65,266.76C1094.64,266.893 1094.64,267.027 1094.65,267.16C1094.64,267.247 1094.64,267.333 1094.65,267.42C1094.64,267.473 1094.64,267.527 1094.65,267.58C1094.65,267.6 1094.65,267.62 1094.65,267.64C1094.65,271.372 1091.59,274.448 1087.86,274.47L1047.5,274.47C1043.95,274.469 1040.9,277.105 1040.4,280.62L1040.4,282.32L1040.46,282.69L1040.46,283.04C1040.46,283.16 1040.52,283.28 1040.55,283.4C1040.58,283.52 1040.55,283.62 1040.63,283.73L1040.75,284.08L1040.87,284.4L1041.02,284.73L1041.17,285.03L1041.35,285.34L1041.53,285.63C1041.59,285.731 1041.66,285.828 1041.74,285.92C1041.81,286.01 1041.87,286.1 1041.94,286.18L1042.18,286.46L1042.4,286.7L1042.67,286.95L1042.91,287.17L1043.21,287.39L1043.47,287.59L1043.79,287.79L1044.06,287.95L1044.41,288.12L1044.69,288.25C1044.81,288.307 1044.94,288.354 1045.07,288.39L1045.35,288.5L1045.77,288.61L1046.05,288.68L1046.51,288.75L1105.89,288.75C1109.2,284.778 1112.11,280.487 1114.57,275.94C1114.79,275.53 1115.01,275.12 1115.22,274.7C1117.61,270.116 1119.54,265.306 1120.97,260.34L1101.75,260.34L1101.75,260.46Z" style="fill:rgb(177,127,81);fill-rule:nonzero;"/>
            <path d="M1088.81,203.06L1088.57,203.06C1088.41,203.06 1088.25,203.06 1088.09,203.14L1087.82,203.21C1087.68,203.237 1087.54,203.274 1087.4,203.32L1087.12,203.42L1086.74,203.56L1086.46,203.7C1086.34,203.746 1086.22,203.803 1086.11,203.87L1085.84,204.03L1085.52,204.23L1085.26,204.42L1084.96,204.65L1084.72,204.86L1084.45,205.11L1084.23,205.35C1084.14,205.439 1084.07,205.532 1083.99,205.63C1083.92,205.71 1083.86,205.8 1083.79,205.89L1083.57,206.19L1083.4,206.47C1083.33,206.573 1083.27,206.68 1083.22,206.79C1083.16,206.886 1083.11,206.986 1083.07,207.09C1083.01,207.197 1082.96,207.307 1082.92,207.42C1082.87,207.52 1082.84,207.63 1082.8,207.73C1082.76,207.83 1082.71,207.97 1082.68,208.08L1082.59,208.41C1082.59,208.53 1082.53,208.65 1082.51,208.78C1082.49,208.91 1082.51,209.01 1082.45,209.12C1082.39,209.23 1082.45,209.37 1082.45,209.5L1082.45,210.3C1082.44,210.39 1082.44,210.48 1082.45,210.57L1082.45,211.19C1082.95,214.707 1086,217.346 1089.55,217.35L1121.15,217.35C1119.77,212.389 1117.89,207.579 1115.55,202.99L1089.55,202.99C1089.3,202.998 1089.06,203.021 1088.81,203.06Z" style="fill:rgb(177,127,81);fill-rule:nonzero;"/>
            <path d="M996.84,231.74C998.266,231.739 999.66,231.311 1000.84,230.51C1001.22,230.256 1001.58,229.965 1001.9,229.64C1002.06,229.48 1002.22,229.3 1002.36,229.13C1003.43,227.847 1004.01,226.228 1004,224.56C1004,223.599 1003.81,222.647 1003.44,221.76C1003.26,221.336 1003.04,220.931 1002.78,220.55C1002.39,219.976 1001.92,219.461 1001.39,219.02C1000.11,217.954 998.488,217.373 996.82,217.38L969.61,217.38C968.303,222.076 967.432,226.883 967.01,231.74L996.84,231.74Z" style="fill:rgb(177,127,81);fill-rule:nonzero;"/>
            <path d="M997.64,253.15L997.64,252.87C997.65,252.737 997.65,252.603 997.64,252.47C997.644,252.397 997.644,252.323 997.64,252.25C997.131,248.737 994.089,246.103 990.54,246.1L967.07,246.1C967.53,250.961 968.441,255.768 969.79,260.46L991.45,260.46L991.92,260.39L992.2,260.31L992.61,260.21L992.9,260.1L993.27,259.96L993.56,259.83L993.9,259.66L994.18,259.49L994.5,259.29L994.76,259.1L995.05,258.87C995.13,258.81 995.21,258.73 995.29,258.66L995.56,258.41L995.78,258.17C995.86,258.08 995.95,257.99 996.03,257.89L996.22,257.63C996.29,257.53 996.37,257.44 996.44,257.33L996.61,257.05L996.8,256.74L996.94,256.44C996.94,256.33 997.05,256.22 997.1,256.1C997.15,255.98 997.17,255.89 997.21,255.79C997.25,255.69 997.3,255.56 997.33,255.44C997.36,255.32 997.39,255.22 997.42,255.11L997.51,254.74L997.51,254.4C997.51,254.29 997.51,254.15 997.56,254.02C997.61,253.89 997.56,253.79 997.56,253.67L997.56,253.22L997.64,253.15Z" style="fill:rgb(177,127,81);fill-rule:nonzero;"/>
            <path d="M1045.82,309.61C1045.82,309.567 1045.82,309.523 1045.82,309.48L1045.82,308.79C1045.82,308.68 1045.76,308.5 1045.72,308.36C1045.73,308.293 1045.73,308.227 1045.72,308.16C1044.86,305.066 1042.02,302.909 1038.81,302.91L1000.22,302.91C1012.03,311.259 1025.93,316.171 1040.37,317.1C1040.57,317.05 1040.77,317 1040.97,316.93L1041.17,316.86L1041.56,316.72L1041.78,316.62L1042.12,316.46L1042.35,316.33L1042.65,316.15L1042.87,316L1043.15,315.8L1043.37,315.63L1043.62,315.41L1043.82,315.22L1044.06,314.98L1044.24,314.77C1044.32,314.691 1044.38,314.608 1044.45,314.52C1044.51,314.447 1044.57,314.371 1044.62,314.29C1044.69,314.206 1044.76,314.115 1044.81,314.02L1044.96,313.78L1045.13,313.5C1045.13,313.41 1045.21,313.33 1045.26,313.24L1045.4,312.94C1045.4,312.85 1045.47,312.76 1045.51,312.67C1045.55,312.58 1045.58,312.47 1045.62,312.36L1045.71,312.08C1045.71,311.98 1045.71,311.87 1045.79,311.76L1045.85,311.47C1045.88,311.358 1045.9,311.244 1045.91,311.13L1045.91,309.88L1045.82,309.61Z" style="fill:rgb(177,127,81);fill-rule:nonzero;"/>
            <path d="M1051.86,181.61C1051.87,181.7 1051.87,181.79 1051.86,181.88L1051.86,182.5C1052.36,186.015 1055.4,188.656 1058.95,188.66L1106.07,188.66C1101.58,183.203 1096.38,178.373 1090.61,174.3L1058.02,174.3L1057.55,174.37L1057.28,174.44L1056.86,174.55L1056.57,174.66C1056.44,174.699 1056.31,174.746 1056.19,174.8L1055.91,174.93L1055.56,175.1L1055.29,175.27L1054.97,175.47L1054.71,175.66C1054.61,175.728 1054.51,175.801 1054.42,175.88C1054.33,175.95 1054.26,176.03 1054.18,176.1C1054.09,176.178 1054,176.262 1053.91,176.35L1053.69,176.59C1053.61,176.68 1053.52,176.77 1053.44,176.87C1053.37,176.952 1053.31,177.039 1053.25,177.13C1053.17,177.226 1053.1,177.326 1053.03,177.43L1052.86,177.71C1052.8,177.81 1052.73,177.91 1052.67,178.02C1052.61,178.13 1052.57,178.22 1052.53,178.32C1052.47,178.43 1052.42,178.544 1052.37,178.66C1052.37,178.76 1052.29,178.87 1052.26,178.97C1052.23,179.07 1052.17,179.2 1052.13,179.32C1052.09,179.44 1052.08,179.54 1052.05,179.65L1051.96,180.02L1051.96,181.41C1051.96,181.52 1051.96,181.41 1051.96,181.47C1051.96,181.53 1051.86,181.59 1051.86,181.61Z" style="fill:rgb(177,127,81);fill-rule:nonzero;"/>
            <path d="M1028.66,203L1028.9,203L1029.37,202.93L1029.65,202.86L1030.06,202.75L1030.35,202.65L1030.73,202.51L1031.01,202.37L1031.36,202.2L1031.62,202.04L1031.95,201.84L1032.21,201.65L1032.51,201.42L1032.74,201.2L1033.02,200.95L1033.23,200.71L1033.48,200.44L1033.68,200.17L1033.89,199.88C1033.95,199.787 1034.01,199.69 1034.06,199.59C1034.13,199.49 1034.19,199.387 1034.25,199.28L1034.4,198.98L1034.55,198.65L1034.67,198.33L1034.79,197.98C1034.79,197.87 1034.85,197.76 1034.87,197.65C1034.89,197.54 1034.94,197.41 1034.96,197.29C1034.98,197.17 1034.96,197.06 1034.96,196.94L1034.96,195.9C1034.96,195.8 1034.96,195.85 1034.96,195.83L1034.96,195.76C1034.95,195.67 1034.95,195.58 1034.96,195.49L1034.96,194.87C1034.45,191.357 1031.41,188.723 1027.86,188.72L984.6,188.72C980.957,193.124 977.805,197.912 975.2,203L1027.92,203C1028.17,203.015 1028.41,203.015 1028.66,203Z" style="fill:rgb(177,127,81);fill-rule:nonzero;"/>
            <path d="M1123.75,231.74L1082.63,231.74C1079.08,231.743 1076.04,234.377 1075.53,237.89C1075.53,237.963 1075.53,238.037 1075.53,238.11C1075.52,238.246 1075.52,238.384 1075.53,238.52C1075.53,238.61 1075.53,238.7 1075.53,238.79L1075.53,240.31L1075.62,240.68C1075.62,240.79 1075.62,240.9 1075.71,241.01C1075.8,241.12 1075.79,241.24 1075.83,241.36C1075.87,241.48 1075.9,241.57 1075.94,241.67C1075.98,241.77 1076.05,241.89 1076.1,242.01C1076.15,242.13 1076.19,242.21 1076.24,242.3L1076.43,242.62L1076.6,242.9L1076.82,243.2L1077.01,243.46C1077.09,243.56 1077.18,243.65 1077.26,243.74L1077.48,243.98L1077.75,244.23L1077.99,244.44L1078.28,244.67L1078.54,244.86L1078.87,245.06L1079.14,245.22C1079.25,245.286 1079.37,245.346 1079.49,245.4L1079.77,245.53L1080.14,245.67L1080.43,245.77C1080.57,245.816 1080.71,245.853 1080.85,245.88L1081.12,245.95C1081.27,245.95 1081.43,246 1081.59,246.03C1081.67,246.035 1081.76,246.035 1081.84,246.03C1082.09,246.045 1082.33,246.045 1082.58,246.03L1123.64,246.03C1123.87,243.56 1124,241.03 1124,238.53C1124.05,236.29 1123.94,234 1123.75,231.74Z" style="fill:rgb(177,127,81);fill-rule:nonzero;"/>
            <path d="M1653.22,72.6C1653.22,74.317 1651.81,75.73 1650.09,75.73C1648.37,75.73 1646.96,74.317 1646.96,72.6C1646.96,70.883 1648.37,69.47 1650.09,69.47C1651.81,69.47 1653.22,70.883 1653.22,72.6ZM544.81,302.36C544.81,304.077 543.397,305.49 541.68,305.49C539.963,305.49 538.55,304.077 538.55,302.36C538.55,300.643 539.963,299.23 541.68,299.23C543.397,299.23 544.81,300.643 544.81,302.36ZM12.18,39.38C12.18,41.097 10.767,42.51 9.05,42.51C7.333,42.51 5.92,41.097 5.92,39.38C5.92,37.663 7.333,36.25 9.05,36.25C10.767,36.25 12.18,37.663 12.18,39.38ZM1227.23,16.68C1227.23,18.397 1225.82,19.81 1224.1,19.81C1222.38,19.81 1220.97,18.397 1220.97,16.68C1220.97,14.963 1222.38,13.55 1224.1,13.55C1225.82,13.55 1227.23,14.963 1227.23,16.68ZM716.41,366.82C716.41,368.537 714.997,369.95 713.28,369.95C711.563,369.95 710.15,368.537 710.15,366.82C710.15,365.103 711.563,363.69 713.28,363.69C714.997,363.69 716.41,365.103 716.41,366.82ZM1447.69,81.32C1446.83,81.32 1446.12,82.029 1446.12,82.89C1446.12,83.751 1446.83,84.46 1447.69,84.46C1448.55,84.46 1449.26,83.751 1449.26,82.89L1449.26,82.88C1449.26,82.024 1448.56,81.32 1447.7,81.32C1447.7,81.32 1447.69,81.32 1447.69,81.32ZM164.91,323.77C164.058,323.775 163.36,324.478 163.36,325.33C163.36,326.186 164.064,326.89 164.92,326.89C165.776,326.89 166.48,326.186 166.48,325.33C166.48,325.33 166.48,325.33 166.48,325.33C166.48,324.474 165.776,323.77 164.92,323.77C164.917,323.77 164.913,323.77 164.91,323.77ZM1.56,354.51C0.708,354.515 0.01,355.218 0.01,356.07C0.01,356.926 0.714,357.63 1.57,357.63C2.426,357.63 3.13,356.926 3.13,356.07C3.13,356.07 3.13,356.07 3.13,356.07C3.13,355.214 2.426,354.51 1.57,354.51C1.567,354.51 1.563,354.51 1.56,354.51ZM754,0C753.451,0 753,0.451 753,1C753,1.549 753.451,2 754,2C754.549,2 755,1.549 755,1C755,0.451 754.549,0 754,0ZM9.05,262.93C8.501,262.93 8.05,263.381 8.05,263.93C8.05,264.479 8.501,264.93 9.05,264.93C9.599,264.93 10.05,264.479 10.05,263.93C10.05,263.381 9.599,262.93 9.05,262.93ZM488.36,35.29C487.926,35.408 487.622,35.805 487.622,36.255C487.622,36.705 487.926,37.102 488.36,37.22C488.445,37.243 488.534,37.255 488.622,37.255C489.171,37.255 489.622,36.804 489.622,36.255C489.622,35.706 489.171,35.255 488.622,35.255C488.534,35.255 488.445,35.267 488.36,35.29ZM1022.36,10.15C1021.81,10.15 1021.36,10.601 1021.36,11.15C1021.36,11.699 1021.81,12.15 1022.36,12.15C1022.91,12.15 1023.36,11.699 1023.36,11.15C1023.36,11.15 1023.36,11.15 1023.36,11.15C1023.36,10.601 1022.91,10.15 1022.36,10.15C1022.35,10.15 1022.35,10.15 1022.34,10.15L1022.36,10.15ZM644.71,250.57C644.161,250.57 643.71,251.021 643.71,251.57C643.71,252.119 644.161,252.57 644.71,252.57C645.259,252.57 645.71,252.119 645.71,251.57C645.71,251.021 645.259,250.57 644.71,250.57ZM327.26,315.9C326.711,315.9 326.26,316.351 326.26,316.9C326.26,317.449 326.711,317.9 327.26,317.9C327.809,317.9 328.26,317.449 328.26,316.9C328.26,316.351 327.809,315.9 327.26,315.9ZM1135.75,333.24C1134.9,333.245 1134.2,333.948 1134.2,334.8C1134.2,335.656 1134.9,336.36 1135.76,336.36C1136.62,336.36 1137.32,335.656 1137.32,334.8C1137.32,334.8 1137.32,334.8 1137.32,334.8C1137.32,333.944 1136.62,333.24 1135.76,333.24C1135.76,333.24 1135.75,333.24 1135.75,333.24ZM1671.32,356.07C1670.46,356.07 1669.76,356.774 1669.76,357.63C1669.76,358.486 1670.46,359.19 1671.32,359.19C1672.18,359.19 1672.88,358.486 1672.88,357.63C1672.88,356.774 1672.18,356.07 1671.32,356.07Z" style="fill:url(#_Linear1);fill-rule:nonzero;"/>
        </g>
    </g>
    <defs>
        <linearGradient id="_Linear1" x1="0" y1="0" x2="1" y2="0" gradientUnits="userSpaceOnUse" gradientTransform="matrix(1672.88,0,0,1672.88,0,184.97)"><stop offset="0" style="stop-color:rgb(245,180,36);stop-opacity:1"/><stop offset="0.1" style="stop-color:rgb(252,238,33);stop-opacity:0.4"/><stop offset="0.2" style="stop-color:rgb(245,180,36);stop-opacity:1"/><stop offset="0.3" style="stop-color:rgb(252,238,33);stop-opacity:0.4"/><stop offset="0.4" style="stop-color:rgb(245,180,36);stop-opacity:1"/><stop offset="0.5" style="stop-color:rgb(252,238,33);stop-opacity:0.4"/><stop offset="0.6" style="stop-color:rgb(245,180,36);stop-opacity:1"/><stop offset="0.7" style="stop-color:rgb(252,238,33);stop-opacity:0.4"/><stop offset="0.8" style="stop-color:rgb(245,180,36);stop-opacity:1"/><stop offset="0.9" style="stop-color:rgb(252,238,33);stop-opacity:0.4"/><stop offset="1" style="stop-color:rgb(245,180,36);stop-opacity:1"/></linearGradient>
    </defs>
</svg>
