<?xml version="1.0" encoding="UTF-8" standalone="no"?>
<!DOCTYPE svg PUBLIC "-//W3C//DTD SVG 1.1//EN" "http://www.w3.org/Graphics/SVG/1.1/DTD/svg11.dtd">
<svg width="100%" height="100%" viewBox="0 0 103 103" version="1.1" xmlns="http://www.w3.org/2000/svg" xmlns:xlink="http://www.w3.org/1999/xlink" xml:space="preserve" xmlns:serif="http://www.serif.com/" style="fill-rule:evenodd;clip-rule:evenodd;stroke-linejoin:round;stroke-miterlimit:2;">
    <g id="Capa_2" transform="matrix(1,0,0,1,-810,-74)">
        <g id="Used">
            <path d="M912.54,119.56C912.128,115.672 911.262,111.846 909.96,108.16C908.549,104.136 906.637,100.306 904.27,96.76C901.395,92.46 897.889,88.616 893.87,85.36C884.773,77.996 873.414,73.984 861.71,74C858.583,74 856.01,76.573 856.01,79.7C856.01,82.827 858.583,85.4 861.71,85.4L873.1,85.4C876.227,85.4 878.8,87.973 878.8,91.1C878.8,94.227 876.227,96.8 873.1,96.8L873.46,96.8C870.333,96.8 867.76,99.373 867.76,102.5C867.76,105.627 870.333,108.2 873.46,108.2L881.35,108.2C884.477,108.2 887.05,110.773 887.05,113.9C887.05,117.027 884.477,119.6 881.35,119.6L873,119.6C869.873,119.6 867.3,122.173 867.3,125.3C867.3,128.427 869.873,131 873,131L895.19,131C892.063,131 889.49,133.573 889.49,136.7C889.49,139.827 892.063,142.4 895.19,142.4L863.36,142.4C860.233,142.4 857.66,144.973 857.66,148.1C857.66,151.227 860.233,153.8 863.36,153.8L881.36,153.8C884.419,153.895 886.883,156.437 886.883,159.497C886.883,161.939 885.314,164.122 883,164.9C882.455,165.065 881.889,165.149 881.32,165.15L861.68,165.15C859.304,165.89 857.674,168.104 857.674,170.592C857.674,173.578 860.021,176.084 863,176.28C874.121,176.009 884.852,172.098 893.54,165.15L893.85,164.9C897.791,161.708 901.239,157.951 904.08,153.75C908.68,146.938 911.568,139.116 912.5,130.95C912.716,129.017 912.826,127.075 912.83,125.13C912.835,123.269 912.738,121.41 912.54,119.56Z" style="fill:rgb(157,71,56);fill-rule:nonzero;"/>
            <path d="M848.68,131L810.84,131C811.271,134.89 812.158,138.716 813.48,142.4L848.68,142.4C851.807,142.4 854.38,139.827 854.38,136.7C854.38,133.573 851.807,131 848.68,131Z" style="fill:rgb(157,71,56);fill-rule:nonzero;"/>
            <path d="M824.21,113.86C824.21,110.733 821.637,108.16 818.51,108.16L814.51,108.16C817.637,108.16 820.21,105.587 820.21,102.46C820.216,100.793 819.483,99.206 818.21,98.13C814.167,104.627 811.641,111.952 810.82,119.56L818.52,119.56C821.643,119.555 824.21,116.983 824.21,113.86Z" style="fill:rgb(157,71,56);fill-rule:nonzero;"/>
            <path d="M863.36,142.35L895.23,142.35C892.103,142.35 889.53,139.777 889.53,136.65C889.53,133.523 892.103,130.95 895.23,130.95L873,130.95C872.92,130.953 872.841,130.955 872.761,130.955C869.634,130.955 867.061,128.382 867.061,125.255C867.061,122.128 869.634,119.555 872.761,119.555C872.841,119.555 872.92,119.557 873,119.56L881.31,119.56C884.437,119.56 887.01,116.987 887.01,113.86C887.01,110.733 884.437,108.16 881.31,108.16L873.42,108.16C870.293,108.16 867.72,105.587 867.72,102.46C867.72,99.333 870.293,96.76 873.42,96.76L873.06,96.76C876.187,96.76 878.76,94.187 878.76,91.06C878.76,87.933 876.187,85.36 873.06,85.36L861.72,85.36C858.593,85.36 856.02,82.787 856.02,79.66C856.02,76.533 858.593,73.96 861.72,73.96C845.133,73.964 829.541,82.027 819.95,95.56C819.67,95.95 819.4,96.35 819.13,96.76C818.86,97.17 818.53,97.66 818.24,98.13C819.513,99.206 820.246,100.793 820.24,102.46C820.24,105.587 817.667,108.16 814.54,108.16L818.54,108.16C821.667,108.16 824.24,110.733 824.24,113.86C824.24,116.987 821.667,119.56 818.54,119.56L810.84,119.56C810.407,123.344 810.407,127.166 810.84,130.95L848.68,130.95C851.807,130.95 854.38,133.523 854.38,136.65C854.38,139.777 851.807,142.35 848.68,142.35L813.48,142.35C814.917,146.377 816.855,150.208 819.25,153.75C822.167,158.061 825.72,161.905 829.79,165.15C838.843,172.38 850.094,176.314 861.68,176.3L863.02,176.3C860.034,176.112 857.678,173.603 857.678,170.611C857.678,168.124 859.306,165.911 861.68,165.17L881.35,165.17C881.919,165.169 882.485,165.085 883.03,164.92C885.418,164.188 887.06,161.968 887.06,159.47C887.06,156.343 884.487,153.77 881.36,153.77C881.357,153.77 881.353,153.77 881.35,153.77L863.35,153.77C860.223,153.77 857.65,151.197 857.65,148.07C857.65,144.943 860.223,142.37 863.35,142.37L863.36,142.35Z" style="fill:rgb(125,40,25);fill-rule:nonzero;"/>
            <path d="M1653.22,72.6C1653.22,74.317 1651.81,75.73 1650.09,75.73C1648.37,75.73 1646.96,74.317 1646.96,72.6C1646.96,70.883 1648.37,69.47 1650.09,69.47C1651.81,69.47 1653.22,70.883 1653.22,72.6ZM544.81,302.36C544.81,304.077 543.397,305.49 541.68,305.49C539.963,305.49 538.55,304.077 538.55,302.36C538.55,300.643 539.963,299.23 541.68,299.23C543.397,299.23 544.81,300.643 544.81,302.36ZM12.18,39.38C12.18,41.097 10.767,42.51 9.05,42.51C7.333,42.51 5.92,41.097 5.92,39.38C5.92,37.663 7.333,36.25 9.05,36.25C10.767,36.25 12.18,37.663 12.18,39.38ZM1227.23,16.68C1227.23,18.397 1225.82,19.81 1224.1,19.81C1222.38,19.81 1220.97,18.397 1220.97,16.68C1220.97,14.963 1222.38,13.55 1224.1,13.55C1225.82,13.55 1227.23,14.963 1227.23,16.68ZM716.41,366.82C716.41,368.537 714.997,369.95 713.28,369.95C711.563,369.95 710.15,368.537 710.15,366.82C710.15,365.103 711.563,363.69 713.28,363.69C714.997,363.69 716.41,365.103 716.41,366.82ZM1447.69,81.32C1446.83,81.32 1446.12,82.029 1446.12,82.89C1446.12,83.751 1446.83,84.46 1447.69,84.46C1448.55,84.46 1449.26,83.751 1449.26,82.89L1449.26,82.88C1449.26,82.024 1448.56,81.32 1447.7,81.32C1447.7,81.32 1447.69,81.32 1447.69,81.32ZM164.91,323.77C164.058,323.775 163.36,324.478 163.36,325.33C163.36,326.186 164.064,326.89 164.92,326.89C165.776,326.89 166.48,326.186 166.48,325.33C166.48,325.33 166.48,325.33 166.48,325.33C166.48,324.474 165.776,323.77 164.92,323.77C164.917,323.77 164.913,323.77 164.91,323.77ZM1.56,354.51C0.708,354.515 0.01,355.218 0.01,356.07C0.01,356.926 0.714,357.63 1.57,357.63C2.426,357.63 3.13,356.926 3.13,356.07C3.13,356.07 3.13,356.07 3.13,356.07C3.13,355.214 2.426,354.51 1.57,354.51C1.567,354.51 1.563,354.51 1.56,354.51ZM754,0C753.451,0 753,0.451 753,1C753,1.549 753.451,2 754,2C754.549,2 755,1.549 755,1C755,0.451 754.549,0 754,0ZM9.05,262.93C8.501,262.93 8.05,263.381 8.05,263.93C8.05,264.479 8.501,264.93 9.05,264.93C9.599,264.93 10.05,264.479 10.05,263.93C10.05,263.381 9.599,262.93 9.05,262.93ZM488.36,35.29C487.926,35.408 487.622,35.805 487.622,36.255C487.622,36.705 487.926,37.102 488.36,37.22C488.445,37.243 488.534,37.255 488.622,37.255C489.171,37.255 489.622,36.804 489.622,36.255C489.622,35.706 489.171,35.255 488.622,35.255C488.534,35.255 488.445,35.267 488.36,35.29ZM1022.36,10.15C1021.81,10.15 1021.36,10.601 1021.36,11.15C1021.36,11.699 1021.81,12.15 1022.36,12.15C1022.91,12.15 1023.36,11.699 1023.36,11.15C1023.36,11.15 1023.36,11.15 1023.36,11.15C1023.36,10.601 1022.91,10.15 1022.36,10.15C1022.35,10.15 1022.35,10.15 1022.34,10.15L1022.36,10.15ZM644.71,250.57C644.161,250.57 643.71,251.021 643.71,251.57C643.71,252.119 644.161,252.57 644.71,252.57C645.259,252.57 645.71,252.119 645.71,251.57C645.71,251.021 645.259,250.57 644.71,250.57ZM327.26,315.9C326.711,315.9 326.26,316.351 326.26,316.9C326.26,317.449 326.711,317.9 327.26,317.9C327.809,317.9 328.26,317.449 328.26,316.9C328.26,316.351 327.809,315.9 327.26,315.9ZM1135.75,333.24C1134.9,333.245 1134.2,333.948 1134.2,334.8C1134.2,335.656 1134.9,336.36 1135.76,336.36C1136.62,336.36 1137.32,335.656 1137.32,334.8C1137.32,334.8 1137.32,334.8 1137.32,334.8C1137.32,333.944 1136.62,333.24 1135.76,333.24C1135.76,333.24 1135.75,333.24 1135.75,333.24ZM1671.32,356.07C1670.46,356.07 1669.76,356.774 1669.76,357.63C1669.76,358.486 1670.46,359.19 1671.32,359.19C1672.18,359.19 1672.88,358.486 1672.88,357.63C1672.88,356.774 1672.18,356.07 1671.32,356.07Z" style="fill:url(#_Linear1);fill-rule:nonzero;"/>
        </g>
    </g>
    <defs>
        <linearGradient id="_Linear1" x1="0" y1="0" x2="1" y2="0" gradientUnits="userSpaceOnUse" gradientTransform="matrix(1672.88,0,0,1672.88,0,184.97)"><stop offset="0" style="stop-color:rgb(245,180,36);stop-opacity:1"/><stop offset="0.1" style="stop-color:rgb(252,238,33);stop-opacity:0.4"/><stop offset="0.2" style="stop-color:rgb(245,180,36);stop-opacity:1"/><stop offset="0.3" style="stop-color:rgb(252,238,33);stop-opacity:0.4"/><stop offset="0.4" style="stop-color:rgb(245,180,36);stop-opacity:1"/><stop offset="0.5" style="stop-color:rgb(252,238,33);stop-opacity:0.4"/><stop offset="0.6" style="stop-color:rgb(245,180,36);stop-opacity:1"/><stop offset="0.7" style="stop-color:rgb(252,238,33);stop-opacity:0.4"/><stop offset="0.8" style="stop-color:rgb(245,180,36);stop-opacity:1"/><stop offset="0.9" style="stop-color:rgb(252,238,33);stop-opacity:0.4"/><stop offset="1" style="stop-color:rgb(245,180,36);stop-opacity:1"/></linearGradient>
    </defs>
</svg>
