<?xml version="1.0" encoding="UTF-8" standalone="no"?>
<!DOCTYPE svg PUBLIC "-//W3C//DTD SVG 1.1//EN" "http://www.w3.org/Graphics/SVG/1.1/DTD/svg11.dtd">
<svg width="100%" height="100%" viewBox="0 0 81 81" version="1.1" xmlns="http://www.w3.org/2000/svg" xmlns:xlink="http://www.w3.org/1999/xlink" xml:space="preserve" xmlns:serif="http://www.serif.com/" style="fill-rule:evenodd;clip-rule:evenodd;stroke-linejoin:round;stroke-miterlimit:2;">
    <g id="Capa_2" transform="matrix(1,0,0,1,-375,-232)">
        <g id="Used">
            <path d="M435.14,266.66L427.26,266.66C424.133,266.66 421.56,264.087 421.56,260.96C421.56,257.833 424.133,255.26 427.26,255.26L428.26,255.26C431.387,255.26 433.96,252.687 433.96,249.56C433.96,246.433 431.387,243.86 428.26,243.86L414.61,243.86C411.506,243.827 408.971,241.264 408.971,238.16C408.971,235.286 411.146,232.839 414,232.5C404.091,232.859 394.666,236.913 387.59,243.86C384.23,247.154 381.475,251.013 379.45,255.26C376.919,260.601 375.606,266.439 375.606,272.35C375.606,294.238 393.612,312.251 415.5,312.26L416.63,312.26C413.738,311.962 411.514,309.497 411.514,306.59C411.514,303.472 414.072,300.903 417.19,300.89L426.93,300.89C430.057,300.89 432.63,298.317 432.63,295.19C432.63,292.063 430.057,289.49 426.93,289.49L426.87,289.49C423.743,289.49 421.17,286.917 421.17,283.79C421.17,280.663 423.743,278.09 426.87,278.09L435.17,278.09C438.297,278.09 440.87,275.517 440.87,272.39C440.87,269.263 438.297,266.69 435.17,266.69L435.14,266.66Z" style="fill:rgb(198,156,109);fill-rule:nonzero;"/>
            <path d="M455,266.66C452.167,247.124 435.251,232.473 415.51,232.46L414.01,232.46C411.156,232.799 408.983,235.246 408.983,238.12C408.983,241.234 411.536,243.802 414.65,243.82L428.29,243.82C431.417,243.82 433.99,246.393 433.99,249.52C433.99,252.647 431.417,255.22 428.29,255.22L427.29,255.22C424.163,255.22 421.59,257.793 421.59,260.92C421.59,264.047 424.163,266.62 427.29,266.62L435.17,266.62C438.297,266.62 440.87,269.193 440.87,272.32C440.87,275.447 438.297,278.02 435.17,278.02L426.87,278.02C423.743,278.02 421.17,280.593 421.17,283.72C421.17,286.847 423.743,289.42 426.87,289.42L426.93,289.42C430.057,289.42 432.63,291.993 432.63,295.12C432.63,298.247 430.057,300.82 426.93,300.82L417.19,300.82C414.072,300.833 411.514,303.402 411.514,306.52C411.514,309.427 413.738,311.892 416.63,312.19C438.082,311.595 455.404,293.786 455.404,272.325C455.404,270.43 455.269,268.536 455,266.66Z" style="fill:rgb(140,98,57);fill-rule:nonzero;"/>
            <path d="M1653.22,72.6C1653.22,74.317 1651.81,75.73 1650.09,75.73C1648.37,75.73 1646.96,74.317 1646.96,72.6C1646.96,70.883 1648.37,69.47 1650.09,69.47C1651.81,69.47 1653.22,70.883 1653.22,72.6ZM544.81,302.36C544.81,304.077 543.397,305.49 541.68,305.49C539.963,305.49 538.55,304.077 538.55,302.36C538.55,300.643 539.963,299.23 541.68,299.23C543.397,299.23 544.81,300.643 544.81,302.36ZM12.18,39.38C12.18,41.097 10.767,42.51 9.05,42.51C7.333,42.51 5.92,41.097 5.92,39.38C5.92,37.663 7.333,36.25 9.05,36.25C10.767,36.25 12.18,37.663 12.18,39.38ZM1227.23,16.68C1227.23,18.397 1225.82,19.81 1224.1,19.81C1222.38,19.81 1220.97,18.397 1220.97,16.68C1220.97,14.963 1222.38,13.55 1224.1,13.55C1225.82,13.55 1227.23,14.963 1227.23,16.68ZM716.41,366.82C716.41,368.537 714.997,369.95 713.28,369.95C711.563,369.95 710.15,368.537 710.15,366.82C710.15,365.103 711.563,363.69 713.28,363.69C714.997,363.69 716.41,365.103 716.41,366.82ZM1447.69,81.32C1446.83,81.32 1446.12,82.029 1446.12,82.89C1446.12,83.751 1446.83,84.46 1447.69,84.46C1448.55,84.46 1449.26,83.751 1449.26,82.89L1449.26,82.88C1449.26,82.024 1448.56,81.32 1447.7,81.32C1447.7,81.32 1447.69,81.32 1447.69,81.32ZM164.91,323.77C164.058,323.775 163.36,324.478 163.36,325.33C163.36,326.186 164.064,326.89 164.92,326.89C165.776,326.89 166.48,326.186 166.48,325.33C166.48,325.33 166.48,325.33 166.48,325.33C166.48,324.474 165.776,323.77 164.92,323.77C164.917,323.77 164.913,323.77 164.91,323.77ZM1.56,354.51C0.708,354.515 0.01,355.218 0.01,356.07C0.01,356.926 0.714,357.63 1.57,357.63C2.426,357.63 3.13,356.926 3.13,356.07C3.13,356.07 3.13,356.07 3.13,356.07C3.13,355.214 2.426,354.51 1.57,354.51C1.567,354.51 1.563,354.51 1.56,354.51ZM754,0C753.451,0 753,0.451 753,1C753,1.549 753.451,2 754,2C754.549,2 755,1.549 755,1C755,0.451 754.549,0 754,0ZM9.05,262.93C8.501,262.93 8.05,263.381 8.05,263.93C8.05,264.479 8.501,264.93 9.05,264.93C9.599,264.93 10.05,264.479 10.05,263.93C10.05,263.381 9.599,262.93 9.05,262.93ZM488.36,35.29C487.926,35.408 487.622,35.805 487.622,36.255C487.622,36.705 487.926,37.102 488.36,37.22C488.445,37.243 488.534,37.255 488.622,37.255C489.171,37.255 489.622,36.804 489.622,36.255C489.622,35.706 489.171,35.255 488.622,35.255C488.534,35.255 488.445,35.267 488.36,35.29ZM1022.36,10.15C1021.81,10.15 1021.36,10.601 1021.36,11.15C1021.36,11.699 1021.81,12.15 1022.36,12.15C1022.91,12.15 1023.36,11.699 1023.36,11.15C1023.36,11.15 1023.36,11.15 1023.36,11.15C1023.36,10.601 1022.91,10.15 1022.36,10.15C1022.35,10.15 1022.35,10.15 1022.34,10.15L1022.36,10.15ZM644.71,250.57C644.161,250.57 643.71,251.021 643.71,251.57C643.71,252.119 644.161,252.57 644.71,252.57C645.259,252.57 645.71,252.119 645.71,251.57C645.71,251.021 645.259,250.57 644.71,250.57ZM327.26,315.9C326.711,315.9 326.26,316.351 326.26,316.9C326.26,317.449 326.711,317.9 327.26,317.9C327.809,317.9 328.26,317.449 328.26,316.9C328.26,316.351 327.809,315.9 327.26,315.9ZM1135.75,333.24C1134.9,333.245 1134.2,333.948 1134.2,334.8C1134.2,335.656 1134.9,336.36 1135.76,336.36C1136.62,336.36 1137.32,335.656 1137.32,334.8C1137.32,334.8 1137.32,334.8 1137.32,334.8C1137.32,333.944 1136.62,333.24 1135.76,333.24C1135.76,333.24 1135.75,333.24 1135.75,333.24ZM1671.32,356.07C1670.46,356.07 1669.76,356.774 1669.76,357.63C1669.76,358.486 1670.46,359.19 1671.32,359.19C1672.18,359.19 1672.88,358.486 1672.88,357.63C1672.88,356.774 1672.18,356.07 1671.32,356.07Z" style="fill:url(#_Linear1);fill-rule:nonzero;"/>
        </g>
    </g>
    <defs>
        <linearGradient id="_Linear1" x1="0" y1="0" x2="1" y2="0" gradientUnits="userSpaceOnUse" gradientTransform="matrix(1672.88,0,0,1672.88,0,184.97)"><stop offset="0" style="stop-color:rgb(245,180,36);stop-opacity:1"/><stop offset="0.1" style="stop-color:rgb(252,238,33);stop-opacity:0.4"/><stop offset="0.2" style="stop-color:rgb(245,180,36);stop-opacity:1"/><stop offset="0.3" style="stop-color:rgb(252,238,33);stop-opacity:0.4"/><stop offset="0.4" style="stop-color:rgb(245,180,36);stop-opacity:1"/><stop offset="0.5" style="stop-color:rgb(252,238,33);stop-opacity:0.4"/><stop offset="0.6" style="stop-color:rgb(245,180,36);stop-opacity:1"/><stop offset="0.7" style="stop-color:rgb(252,238,33);stop-opacity:0.4"/><stop offset="0.8" style="stop-color:rgb(245,180,36);stop-opacity:1"/><stop offset="0.9" style="stop-color:rgb(252,238,33);stop-opacity:0.4"/><stop offset="1" style="stop-color:rgb(245,180,36);stop-opacity:1"/></linearGradient>
    </defs>
</svg>
