<?xml version="1.0" encoding="UTF-8" standalone="no"?>
<!DOCTYPE svg PUBLIC "-//W3C//DTD SVG 1.1//EN" "http://www.w3.org/Graphics/SVG/1.1/DTD/svg11.dtd">
<svg width="100%" height="100%" viewBox="0 0 81 80" version="1.1" xmlns="http://www.w3.org/2000/svg" xmlns:xlink="http://www.w3.org/1999/xlink" xml:space="preserve" xmlns:serif="http://www.serif.com/" style="fill-rule:evenodd;clip-rule:evenodd;stroke-linejoin:round;stroke-miterlimit:2;">
    <g id="Capa_2" transform="matrix(1,0,0,1,-1572,-215)">
        <g id="Used">
            <path d="M1591.26,255.75C1598.26,254.55 1604.69,251.67 1611.68,250.29C1616.1,249.434 1620.57,248.889 1625.07,248.66C1629.54,248.375 1634.02,248.325 1638.49,248.51C1643.07,248.742 1647.61,249.368 1652.08,250.38C1651.68,246.832 1650.8,243.354 1649.47,240.04C1647.26,240.839 1644.99,241.448 1642.68,241.86C1638.09,242.653 1633.41,242.737 1628.8,242.11C1626.5,241.762 1624.23,241.251 1622,240.58C1617.93,239.408 1613.79,238.503 1609.61,237.87C1605.34,237.128 1600.95,237.354 1596.78,238.53C1594.66,239.12 1592.49,239.85 1590.25,240.45C1585.28,241.912 1580.04,242.217 1574.93,241.34C1573.35,245.693 1572.55,250.289 1572.55,254.92L1572.55,256.29C1578.78,257.009 1585.08,256.827 1591.26,255.75Z" style="fill:rgb(0,113,188);fill-rule:nonzero;"/>
            <path d="M1632.83,279.32C1636.42,279.37 1640.03,279.62 1643.62,279.81C1644.29,278.97 1644.93,278.11 1645.54,277.22C1644.95,277.17 1644.35,277.1 1643.76,277.02C1641.46,276.667 1639.19,276.156 1636.96,275.49C1632.89,274.318 1628.75,273.413 1624.57,272.78C1620.3,272.039 1615.91,272.261 1611.74,273.43C1609.62,274.03 1607.45,274.76 1605.21,275.35C1598.53,277.332 1591.39,277.189 1584.79,274.94C1582.02,273.99 1579.35,273.24 1576.62,272.49C1577.91,275.111 1579.48,277.583 1581.31,279.86C1588.52,279.86 1597.98,279.81 1604.95,279.4C1614.27,279.09 1623.52,279.22 1632.83,279.32Z" style="fill:rgb(0,113,188);fill-rule:nonzero;"/>
            <path d="M1622.13,220C1624.9,220.154 1627.69,219.932 1630.4,219.34C1620.34,214.267 1608.58,213.689 1598.07,217.75C1601.92,217.75 1605.75,218.62 1609.49,218.87C1613.66,219 1617.94,219.61 1622.13,220Z" style="fill:rgb(0,113,188);fill-rule:nonzero;"/>
            <path d="M1599.59,235.8C1605.2,234.86 1610.74,233.71 1616.48,233.64C1620.92,233.64 1625.25,234.9 1629.55,235.09C1633.61,235.29 1637.92,235.4 1641.99,235.34C1643.64,235.34 1645.31,235.15 1646.99,234.99C1643.65,229.209 1638.92,224.352 1633.23,220.86C1631.81,221.038 1630.41,221.329 1629.04,221.73C1626.93,222.32 1624.75,223.06 1622.52,223.65C1615.84,225.632 1608.7,225.489 1602.1,223.24C1598.84,222.12 1595.72,221.24 1592.48,220.38C1586.19,224.01 1581.01,229.282 1577.48,235.63C1581.55,235.82 1585.73,236.42 1589.81,236.75C1593.1,236.896 1596.39,236.576 1599.59,235.8Z" style="fill:rgb(0,113,188);fill-rule:nonzero;"/>
            <path d="M1592.17,270.52C1596.34,270.69 1600.62,271.31 1604.81,271.65C1608.09,271.8 1611.36,271.484 1614.55,270.71C1620.16,269.76 1625.7,268.61 1631.44,268.55C1635.88,268.55 1640.21,269.81 1644.51,269.99C1646.08,270.07 1647.7,270.13 1649.32,270.18C1651.04,266.072 1652.05,261.704 1652.32,257.26C1643.38,255.986 1634.36,255.317 1625.32,255.26C1619.34,255.226 1613.35,255.523 1607.4,256.15C1602.18,256.72 1596.89,257.52 1591.65,258.03C1586.41,258.54 1578.85,259.1 1572.91,259.6C1573.31,263.136 1574.19,266.601 1575.53,269.9C1576.72,269.693 1577.93,269.556 1579.14,269.49C1583.48,269.18 1587.88,270.23 1592.17,270.52Z" style="fill:rgb(0,113,188);fill-rule:nonzero;"/>
            <path d="M1617.44,281.4C1611.28,281.65 1605.44,283.1 1599.38,284.4C1595.38,285.22 1591.32,285.702 1587.24,285.84C1603,298.7 1626.2,297.544 1640.61,283.18C1638.96,282.85 1637.32,282.52 1635.66,282.24C1629.63,281.33 1623.53,281.049 1617.44,281.4Z" style="fill:rgb(0,113,188);fill-rule:nonzero;"/>
            <path d="M1649.47,240C1647.27,240.798 1645,241.407 1642.69,241.82C1638.1,242.618 1633.41,242.702 1628.8,242.07C1626.5,241.722 1624.23,241.211 1622,240.54C1617.93,239.368 1613.79,238.463 1609.61,237.83C1605.34,237.088 1600.95,237.314 1596.78,238.49C1594.66,239.08 1592.49,239.82 1590.25,240.41C1585.28,241.872 1580.03,242.176 1574.92,241.3C1575.63,239.331 1576.5,237.422 1577.52,235.59C1581.59,235.78 1585.77,236.38 1589.86,236.7C1593.13,236.85 1596.41,236.533 1599.59,235.76C1605.2,234.82 1610.74,233.67 1616.48,233.6C1620.92,233.6 1625.25,234.86 1629.55,235.04C1633.61,235.25 1637.92,235.37 1641.99,235.3C1643.64,235.3 1645.32,235.11 1646.99,234.95C1647.94,236.57 1648.77,238.258 1649.47,240Z" style="fill:rgb(51,92,114);fill-rule:nonzero;"/>
            <path d="M1576.62,272.49C1576.2,271.63 1575.81,270.75 1575.45,269.86L1576.62,272.49Z" style="fill:rgb(51,92,114);fill-rule:nonzero;"/>
            <path d="M1649.32,270.18C1648.29,272.648 1647.03,275.01 1645.54,277.23C1644.95,277.17 1644.35,277.1 1643.76,277.02C1641.46,276.666 1639.18,276.155 1636.95,275.49C1632.89,274.314 1628.75,273.406 1624.57,272.77C1620.3,272.037 1615.91,272.263 1611.74,273.43C1609.62,274.03 1607.45,274.76 1605.21,275.35C1598.53,277.332 1591.39,277.189 1584.79,274.94C1582.02,273.99 1579.35,273.25 1576.62,272.49C1576.2,271.63 1575.81,270.75 1575.45,269.86C1576.64,269.653 1577.85,269.516 1579.06,269.45C1583.48,269.18 1587.88,270.24 1592.17,270.52C1596.46,270.8 1600.62,271.32 1604.82,271.65C1608.09,271.8 1611.37,271.483 1614.55,270.71C1620.16,269.76 1625.7,268.61 1631.44,268.55C1635.88,268.55 1640.21,269.81 1644.51,269.99C1646.08,270.07 1647.7,270.13 1649.32,270.18Z" style="fill:rgb(51,92,114);fill-rule:nonzero;"/>
            <path d="M1598.07,217.7C1596.14,218.447 1594.28,219.343 1592.49,220.38L1598.07,217.7Z" style="fill:rgb(51,92,114);fill-rule:nonzero;"/>
            <path d="M1633.24,220.86C1631.82,221.037 1630.42,221.328 1629.05,221.73C1626.94,222.32 1624.76,223.06 1622.53,223.65C1615.85,225.633 1608.71,225.486 1602.11,223.23C1598.85,222.12 1595.73,221.28 1592.49,220.38C1594.28,219.343 1596.14,218.447 1598.07,217.7C1601.93,217.7 1605.75,218.57 1609.48,218.82C1613.66,218.99 1617.94,219.61 1622.13,219.95C1624.9,220.099 1627.68,219.877 1630.4,219.29C1631.37,219.78 1632.32,220.3 1633.24,220.86Z" style="fill:rgb(51,92,114);fill-rule:nonzero;"/>
            <path d="M1652.35,254.92C1652.35,255.7 1652.35,256.48 1652.27,257.25C1643.33,255.981 1634.31,255.312 1625.27,255.25C1619.29,255.217 1613.31,255.514 1607.36,256.14C1602.14,256.71 1596.85,257.51 1591.61,258.02C1586.37,258.53 1578.81,259.09 1572.87,259.59C1572.74,258.52 1572.66,257.42 1572.62,256.33C1578.84,257.038 1585.13,256.853 1591.3,255.78C1598.3,254.58 1604.73,251.7 1611.73,250.32C1616.15,249.463 1620.62,248.919 1625.11,248.69C1629.58,248.41 1634.06,248.36 1638.53,248.54C1643.11,248.77 1647.65,249.399 1652.12,250.42C1652.28,251.914 1652.36,253.417 1652.35,254.92Z" style="fill:rgb(51,92,114);fill-rule:nonzero;"/>
            <path d="M1643.62,279.81C1642.69,280.991 1641.68,282.116 1640.62,283.18C1638.97,282.85 1637.33,282.52 1635.67,282.24C1629.64,281.33 1623.54,281.049 1617.45,281.4C1611.29,281.65 1605.45,283.1 1599.39,284.4C1595.39,285.219 1591.33,285.701 1587.25,285.84C1585.07,284.055 1583.08,282.044 1581.32,279.84C1588.53,279.84 1597.99,279.79 1604.96,279.38C1614.29,279.07 1623.53,279.19 1632.84,279.3C1636.42,279.37 1640,279.62 1643.62,279.81Z" style="fill:rgb(51,92,114);fill-rule:nonzero;"/>
            <path d="M1653.22,72.6C1653.22,74.317 1651.81,75.73 1650.09,75.73C1648.37,75.73 1646.96,74.317 1646.96,72.6C1646.96,70.883 1648.37,69.47 1650.09,69.47C1651.81,69.47 1653.22,70.883 1653.22,72.6ZM544.81,302.36C544.81,304.077 543.397,305.49 541.68,305.49C539.963,305.49 538.55,304.077 538.55,302.36C538.55,300.643 539.963,299.23 541.68,299.23C543.397,299.23 544.81,300.643 544.81,302.36ZM12.18,39.38C12.18,41.097 10.767,42.51 9.05,42.51C7.333,42.51 5.92,41.097 5.92,39.38C5.92,37.663 7.333,36.25 9.05,36.25C10.767,36.25 12.18,37.663 12.18,39.38ZM1227.23,16.68C1227.23,18.397 1225.82,19.81 1224.1,19.81C1222.38,19.81 1220.97,18.397 1220.97,16.68C1220.97,14.963 1222.38,13.55 1224.1,13.55C1225.82,13.55 1227.23,14.963 1227.23,16.68ZM716.41,366.82C716.41,368.537 714.997,369.95 713.28,369.95C711.563,369.95 710.15,368.537 710.15,366.82C710.15,365.103 711.563,363.69 713.28,363.69C714.997,363.69 716.41,365.103 716.41,366.82ZM1447.69,81.32C1446.83,81.32 1446.12,82.029 1446.12,82.89C1446.12,83.751 1446.83,84.46 1447.69,84.46C1448.55,84.46 1449.26,83.751 1449.26,82.89L1449.26,82.88C1449.26,82.024 1448.56,81.32 1447.7,81.32C1447.7,81.32 1447.69,81.32 1447.69,81.32ZM164.91,323.77C164.058,323.775 163.36,324.478 163.36,325.33C163.36,326.186 164.064,326.89 164.92,326.89C165.776,326.89 166.48,326.186 166.48,325.33C166.48,325.33 166.48,325.33 166.48,325.33C166.48,324.474 165.776,323.77 164.92,323.77C164.917,323.77 164.913,323.77 164.91,323.77ZM1.56,354.51C0.708,354.515 0.01,355.218 0.01,356.07C0.01,356.926 0.714,357.63 1.57,357.63C2.426,357.63 3.13,356.926 3.13,356.07C3.13,356.07 3.13,356.07 3.13,356.07C3.13,355.214 2.426,354.51 1.57,354.51C1.567,354.51 1.563,354.51 1.56,354.51ZM754,0C753.451,0 753,0.451 753,1C753,1.549 753.451,2 754,2C754.549,2 755,1.549 755,1C755,0.451 754.549,0 754,0ZM9.05,262.93C8.501,262.93 8.05,263.381 8.05,263.93C8.05,264.479 8.501,264.93 9.05,264.93C9.599,264.93 10.05,264.479 10.05,263.93C10.05,263.381 9.599,262.93 9.05,262.93ZM488.36,35.29C487.926,35.408 487.622,35.805 487.622,36.255C487.622,36.705 487.926,37.102 488.36,37.22C488.445,37.243 488.534,37.255 488.622,37.255C489.171,37.255 489.622,36.804 489.622,36.255C489.622,35.706 489.171,35.255 488.622,35.255C488.534,35.255 488.445,35.267 488.36,35.29ZM1022.36,10.15C1021.81,10.15 1021.36,10.601 1021.36,11.15C1021.36,11.699 1021.81,12.15 1022.36,12.15C1022.91,12.15 1023.36,11.699 1023.36,11.15C1023.36,11.15 1023.36,11.15 1023.36,11.15C1023.36,10.601 1022.91,10.15 1022.36,10.15C1022.35,10.15 1022.35,10.15 1022.34,10.15L1022.36,10.15ZM644.71,250.57C644.161,250.57 643.71,251.021 643.71,251.57C643.71,252.119 644.161,252.57 644.71,252.57C645.259,252.57 645.71,252.119 645.71,251.57C645.71,251.021 645.259,250.57 644.71,250.57ZM327.26,315.9C326.711,315.9 326.26,316.351 326.26,316.9C326.26,317.449 326.711,317.9 327.26,317.9C327.809,317.9 328.26,317.449 328.26,316.9C328.26,316.351 327.809,315.9 327.26,315.9ZM1135.75,333.24C1134.9,333.245 1134.2,333.948 1134.2,334.8C1134.2,335.656 1134.9,336.36 1135.76,336.36C1136.62,336.36 1137.32,335.656 1137.32,334.8C1137.32,334.8 1137.32,334.8 1137.32,334.8C1137.32,333.944 1136.62,333.24 1135.76,333.24C1135.76,333.24 1135.75,333.24 1135.75,333.24ZM1671.32,356.07C1670.46,356.07 1669.76,356.774 1669.76,357.63C1669.76,358.486 1670.46,359.19 1671.32,359.19C1672.18,359.19 1672.88,358.486 1672.88,357.63C1672.88,356.774 1672.18,356.07 1671.32,356.07Z" style="fill:url(#_Linear1);fill-rule:nonzero;"/>
        </g>
    </g>
    <defs>
        <linearGradient id="_Linear1" x1="0" y1="0" x2="1" y2="0" gradientUnits="userSpaceOnUse" gradientTransform="matrix(1672.88,0,0,1672.88,0,184.97)"><stop offset="0" style="stop-color:rgb(245,180,36);stop-opacity:1"/><stop offset="0.1" style="stop-color:rgb(252,238,33);stop-opacity:0.4"/><stop offset="0.2" style="stop-color:rgb(245,180,36);stop-opacity:1"/><stop offset="0.3" style="stop-color:rgb(252,238,33);stop-opacity:0.4"/><stop offset="0.4" style="stop-color:rgb(245,180,36);stop-opacity:1"/><stop offset="0.5" style="stop-color:rgb(252,238,33);stop-opacity:0.4"/><stop offset="0.6" style="stop-color:rgb(245,180,36);stop-opacity:1"/><stop offset="0.7" style="stop-color:rgb(252,238,33);stop-opacity:0.4"/><stop offset="0.8" style="stop-color:rgb(245,180,36);stop-opacity:1"/><stop offset="0.9" style="stop-color:rgb(252,238,33);stop-opacity:0.4"/><stop offset="1" style="stop-color:rgb(245,180,36);stop-opacity:1"/></linearGradient>
    </defs>
</svg>
