<?xml version="1.0" encoding="UTF-8" standalone="no"?>
<!DOCTYPE svg PUBLIC "-//W3C//DTD SVG 1.1//EN" "http://www.w3.org/Graphics/SVG/1.1/DTD/svg11.dtd">
<svg width="100%" height="100%" viewBox="0 0 186 235" version="1.1" xmlns="http://www.w3.org/2000/svg" xmlns:xlink="http://www.w3.org/1999/xlink" xml:space="preserve" xmlns:serif="http://www.serif.com/" style="fill-rule:evenodd;clip-rule:evenodd;stroke-linejoin:round;stroke-miterlimit:2;">
    <g id="Capa_2" transform="matrix(1,0,0,1,-1170,-125)">
        <g id="Used">
            <path d="M1311.26,238.23L1311.04,238.66C1310.32,240.1 1309.54,241.49 1308.7,242.83C1308.53,243.1 1308.36,243.37 1308.18,243.64C1307.62,244.5 1307.03,245.34 1306.42,246.16C1306.23,246.42 1306.03,246.67 1305.83,246.93C1304.57,248.55 1303.21,250.087 1301.75,251.53C1301.52,251.77 1301.28,252 1301.04,252.23C1299.33,253.864 1297.49,255.371 1295.56,256.74L1294.72,257.33C1293.64,258.06 1292.53,258.75 1291.4,259.38C1291.1,259.56 1290.78,259.74 1290.47,259.9C1287.74,261.377 1284.88,262.589 1281.92,263.52L1280.67,263.9C1279.02,264.372 1277.36,264.759 1275.67,265.06C1275.2,265.14 1274.74,265.22 1274.27,265.28C1272.45,265.557 1270.62,265.724 1268.79,265.78L1267.14,265.78C1263.85,265.78 1260.56,265.445 1257.34,264.78C1256.54,264.62 1255.75,264.44 1254.95,264.23C1248.19,262.489 1241.87,259.344 1236.4,255C1235.71,254.44 1235.03,253.87 1234.4,253.28C1232.11,251.223 1230.01,248.952 1228.15,246.5C1227.81,246.05 1227.48,245.6 1227.15,245.14C1226.13,243.702 1225.19,242.21 1224.33,240.67C1224.09,240.25 1223.87,239.83 1223.65,239.4C1222.87,237.914 1222.17,236.384 1221.56,234.82C1221.4,234.42 1221.24,234.01 1221.09,233.61C1220.04,230.732 1219.25,227.763 1218.75,224.74C1218.69,224.38 1218.64,224.03 1218.59,223.67C1218.41,222.4 1218.27,221.12 1218.19,219.84L1218.13,218.84C1218.03,216.505 1218.1,214.165 1218.34,211.84C1218.34,211.5 1218.41,211.17 1218.45,210.84C1218.7,208.818 1219.08,206.814 1219.58,204.84C1219.66,204.52 1219.74,204.21 1219.83,203.9C1220.1,202.9 1220.4,201.9 1220.73,200.97C1220.84,200.67 1220.94,200.37 1221.06,200.06C1221.59,198.597 1222.19,197.162 1222.86,195.76C1222.92,195.62 1222.99,195.47 1223.06,195.33L1223.28,194.9C1223.59,194.27 1223.91,193.65 1224.28,193.05C1224.44,192.76 1224.59,192.49 1224.76,192.21C1225.87,190.292 1227.1,188.451 1228.46,186.7L1229.07,185.93C1230.75,183.859 1232.59,181.929 1234.58,180.16L1235.36,179.48C1237.17,177.936 1239.09,176.528 1241.11,175.27C1241.4,175.08 1241.7,174.9 1242.01,174.72C1243.7,173.702 1245.46,172.79 1247.27,171.99C1247.64,171.82 1248.01,171.67 1248.38,171.52C1249.62,171 1250.89,170.52 1252.18,170.12C1252.59,169.98 1253,169.86 1253.42,169.74C1255.63,169.086 1257.89,168.592 1260.17,168.26C1260.68,168.19 1261.17,168.12 1261.68,168.07C1263.9,167.811 1266.14,167.708 1268.38,167.76C1269.01,167.76 1269.63,167.76 1270.26,167.84C1272.12,167.956 1273.97,168.177 1275.81,168.5C1276.68,168.66 1277.55,168.84 1278.41,169.05C1281.97,169.89 1285.42,171.12 1288.71,172.72C1291.68,174.171 1294.5,175.913 1297.13,177.92C1297.78,178.42 1298.41,178.92 1299.03,179.46C1300.58,180.771 1302.04,182.181 1303.4,183.68C1303.82,184.13 1304.23,184.6 1304.62,185.07C1306.14,186.852 1307.53,188.744 1308.77,190.73C1309.04,191.163 1309.3,191.593 1309.55,192.02C1310.74,194.059 1311.78,196.181 1312.67,198.37C1312.84,198.77 1312.99,199.17 1313.14,199.58C1313.63,200.87 1314.06,202.17 1314.43,203.49C1314.54,203.88 1314.64,204.27 1314.74,204.65C1315.24,206.588 1315.62,208.555 1315.88,210.54C1315.88,210.89 1315.97,211.23 1316,211.54C1316.26,213.924 1316.35,216.324 1316.25,218.72L1316.25,219.72C1316.09,222.393 1315.71,225.049 1315.12,227.66C1315.04,227.98 1314.97,228.29 1314.89,228.61C1314.37,230.766 1313.7,232.884 1312.89,234.95C1312.77,235.25 1312.65,235.54 1312.52,235.84C1312.24,236.51 1311.94,237.18 1311.62,237.84C1311.4,237.94 1311.33,238.09 1311.26,238.23Z" style="fill:rgb(153,134,117);fill-rule:nonzero;"/>
            <path d="M1297.07,177.81C1293.5,176.599 1290.02,175.145 1286.65,173.46C1283.25,171.8 1280.46,170.25 1278.35,168.94C1277.49,168.73 1276.62,168.55 1275.75,168.39C1279.1,170.599 1282.6,172.58 1286.22,174.32C1287.32,174.86 1294.7,178.41 1298.97,179.32C1298.35,178.83 1297.72,178.31 1297.07,177.81Z" style="fill:rgb(137,121,109);fill-rule:nonzero;"/>
            <path d="M1245.49,257.87C1241.89,256.094 1238.17,254.557 1234.37,253.27C1235.03,253.86 1235.71,254.43 1236.37,254.99C1239.32,256.09 1242.22,257.341 1245.04,258.74C1248.44,260.358 1251.73,262.202 1254.89,264.26C1255.69,264.47 1256.48,264.65 1257.28,264.81C1253.93,262 1246.59,258.41 1245.49,257.87Z" style="fill:rgb(137,121,109);fill-rule:nonzero;"/>
            <path d="M1303.34,183.57C1297.17,181.506 1291.15,179.003 1285.34,176.08C1280.12,173.595 1275.06,170.807 1270.17,167.73C1269.54,167.73 1268.92,167.66 1268.29,167.65C1273.66,171.103 1279.25,174.225 1285,177C1290.31,179.59 1298.76,183.33 1304.61,185C1304.17,184.49 1303.76,184 1303.34,183.57Z" style="fill:rgb(137,121,109);fill-rule:nonzero;"/>
            <path d="M1308.71,190.62C1300.12,187.5 1291.72,183.908 1283.53,179.86C1275.36,175.86 1267.76,171.74 1261.62,167.96C1261.12,167.96 1260.62,168.08 1260.11,168.15C1267.56,172.733 1275.23,176.928 1283.11,180.72C1291.68,184.964 1300.49,188.701 1309.5,191.91C1309.25,191.483 1308.98,191.053 1308.71,190.62Z" style="fill:rgb(137,121,109);fill-rule:nonzero;"/>
            <path d="M1312.61,198.26C1303.2,194.69 1292.37,189.95 1281.25,184.53C1271.08,179.58 1261.51,174.46 1253.36,169.63C1252.94,169.75 1252.53,169.87 1252.12,170.01C1260.46,175.01 1270.32,180.28 1280.82,185.4C1292.29,190.99 1303.45,195.85 1313.08,199.47C1312.93,199.06 1312.78,198.66 1312.61,198.26Z" style="fill:rgb(137,121,109);fill-rule:nonzero;"/>
            <path d="M1314.37,203.38C1303.71,199.19 1291.78,193.91 1279.58,187.96C1268.32,182.47 1257.65,176.81 1248.32,171.41C1247.95,171.56 1247.58,171.71 1247.21,171.88C1256.71,177.41 1267.62,183.2 1279.21,188.82C1291.69,194.91 1303.88,200.3 1314.73,204.54C1314.58,204.16 1314.48,203.77 1314.37,203.38Z" style="fill:rgb(137,121,109);fill-rule:nonzero;"/>
            <path d="M1315.82,210.43C1304.25,205.71 1291.21,199.89 1277.11,193.01C1264.04,186.64 1252.24,180.43 1241.95,174.61C1241.64,174.79 1241.34,174.97 1241.05,175.16C1252.16,181.46 1264.39,187.89 1276.69,193.88C1289.88,200.31 1303.41,206.38 1315.94,211.47C1315.91,211.12 1315.87,210.78 1315.82,210.43Z" style="fill:rgb(137,121,109);fill-rule:nonzero;"/>
            <path d="M1316.19,218.65C1302.78,213 1288.51,206.5 1273.99,199.42C1260.39,192.8 1247.33,186.02 1235.3,179.42L1234.52,180.1C1246.66,186.81 1259.84,193.65 1273.52,200.34C1288.17,207.48 1302.58,214.03 1316.09,219.72C1316.17,219.33 1316.18,219 1316.19,218.65Z" style="fill:rgb(137,121,109);fill-rule:nonzero;"/>
            <path d="M1315,227.61C1300.62,221.39 1285.56,214.45 1270.28,207C1255.92,200 1242.04,192.88 1229,185.82L1228.39,186.59C1241.49,193.68 1255.39,200.84 1269.86,207.87C1285.2,215.35 1300.33,222.31 1314.77,228.56C1314.86,228.24 1314.93,227.93 1315,227.61Z" style="fill:rgb(137,121,109);fill-rule:nonzero;"/>
            <path d="M1312.73,234.9C1297.93,228.38 1282.58,221.25 1267.04,213.68C1252.41,206.55 1238.21,199.3 1224.7,192.1C1224.53,192.38 1224.38,192.65 1224.22,192.94C1237.75,200.15 1251.97,207.4 1266.62,214.54C1282.17,222.13 1297.54,229.26 1312.36,235.79C1312.49,235.49 1312.61,235.2 1312.73,234.9Z" style="fill:rgb(137,121,109);fill-rule:nonzero;"/>
            <path d="M1312.61,198.26C1303.2,194.69 1292.37,189.95 1281.25,184.53C1271.08,179.58 1261.51,174.46 1253.36,169.63C1252.94,169.75 1252.53,169.87 1252.12,170.01C1260.46,175.01 1270.32,180.28 1280.82,185.4C1292.29,190.99 1303.45,195.85 1313.08,199.47C1312.93,199.06 1312.78,198.66 1312.61,198.26Z" style="fill:rgb(137,121,109);fill-rule:nonzero;"/>
            <path d="M1247.49,253.77C1240.86,250.52 1234.06,247.636 1227.12,245.13C1227.45,245.59 1227.78,246.04 1228.12,246.49C1234.6,248.861 1240.94,251.581 1247.12,254.64C1254.02,257.928 1260.7,261.659 1267.12,265.81L1268.77,265.81C1261.95,261.33 1254.84,257.308 1247.49,253.77Z" style="fill:rgb(137,121,109);fill-rule:nonzero;"/>
            <path d="M1249.11,250.44C1240,246 1231.11,242.17 1223.62,239.39C1223.84,239.82 1224.06,240.24 1224.3,240.66C1230.94,243.14 1239.15,246.66 1248.69,251.31C1257.45,255.521 1265.98,260.194 1274.24,265.31C1274.71,265.25 1275.17,265.17 1275.64,265.09C1267.07,259.721 1258.22,254.83 1249.11,250.44Z" style="fill:rgb(137,121,109);fill-rule:nonzero;"/>
            <path d="M1250.91,246.76C1240.39,241.63 1230.13,237.11 1221.06,233.6C1221.21,234 1221.37,234.41 1221.53,234.81C1230.37,238.27 1240.31,242.66 1250.53,247.62C1261.67,253.05 1272.08,258.67 1280.71,263.9L1281.96,263.52C1273.12,258.16 1262.39,252.35 1250.91,246.76Z" style="fill:rgb(137,121,109);fill-rule:nonzero;"/>
            <path d="M1254.33,239.74C1242.33,233.89 1230.02,228.36 1218.56,223.66C1218.56,224.02 1218.66,224.37 1218.72,224.73C1229.29,229.08 1241.14,234.38 1253.91,240.61C1267.71,247.33 1280,253.87 1290.47,259.9C1290.78,259.74 1291.1,259.56 1291.4,259.38C1280.05,252.82 1267.23,246 1254.33,239.74Z" style="fill:rgb(137,121,109);fill-rule:nonzero;"/>
            <path d="M1256.14,236C1243.42,229.79 1230.4,223.9 1218.14,218.76L1218.2,219.76C1230.09,224.76 1242.82,230.51 1255.76,236.82C1270.27,243.9 1283.37,250.82 1294.76,257.26L1295.6,256.67C1283.29,249.78 1269.75,242.66 1256.14,236Z" style="fill:rgb(137,121,109);fill-rule:nonzero;"/>
            <path d="M1259.32,229.52C1245.32,222.69 1231.52,216.37 1218.42,210.75C1218.42,211.08 1218.34,211.41 1218.31,211.75C1231.31,217.33 1245,223.61 1258.89,230.38C1273.71,237.61 1287.89,244.99 1301.04,252.23C1301.28,252 1301.52,251.77 1301.75,251.53C1288.57,244.24 1274.24,236.8 1259.32,229.52Z" style="fill:rgb(137,121,109);fill-rule:nonzero;"/>
            <path d="M1262.28,223.44C1247.8,216.39 1233.52,209.78 1219.8,203.79C1219.71,204.1 1219.63,204.41 1219.55,204.73C1233.22,210.73 1247.44,217.28 1261.85,224.31C1277.19,231.78 1291.99,239.4 1305.85,246.93C1306.05,246.67 1306.25,246.42 1306.44,246.16C1292.52,238.6 1277.66,231 1262.28,223.44Z" style="fill:rgb(137,121,109);fill-rule:nonzero;"/>
            <path d="M1264,219.92C1249.39,212.8 1235,206.09 1221,199.92C1220.88,200.23 1220.78,200.53 1220.67,200.83C1234.57,206.96 1248.97,213.65 1263.54,220.76C1279.03,228.31 1294.02,235.99 1308.15,243.61C1308.33,243.34 1308.5,243.07 1308.67,242.8C1294.55,235.19 1279.52,227.49 1264,219.92Z" style="fill:rgb(137,121,109);fill-rule:nonzero;"/>
            <path d="M1311.26,238.23L1311.04,238.66L1222.83,195.66C1222.89,195.52 1222.96,195.37 1223.03,195.23L1223.25,194.8L1311.46,237.8C1311.4,237.94 1311.33,238.09 1311.26,238.23Z" style="fill:rgb(137,121,109);fill-rule:nonzero;"/>
            <path d="M1191.2,179.49L1191.45,179.35L1191.45,179.26C1191.35,179.17 1191.31,179.32 1191.2,179.49Z" style="fill:none;fill-rule:nonzero;"/>
            <path d="M1191.08,179.64C1191.12,179.596 1191.16,179.549 1191.19,179.5L1190.75,179.79C1190.64,180 1190.92,179.88 1191.08,179.64Z" style="fill:none;fill-rule:nonzero;"/>
            <path d="M1317.74,219.21L1316.2,218.21L1316.2,219.6C1316.14,220.6 1316.05,221.65 1315.92,222.67C1322.09,227.295 1327.91,232.354 1333.36,237.81C1337.07,241.81 1340.93,246.01 1342.64,250.97C1342.88,251.9 1343.09,252.85 1342.64,253.44C1340.82,254.7 1338.11,254.69 1335.82,254.62C1332.18,254.393 1328.58,253.796 1325.06,252.84C1318.67,251.079 1312.41,248.891 1306.32,246.29C1298.2,242.9 1290.24,239.02 1282.32,235.29C1261.65,225.44 1239.7,215.5 1219.97,203.15C1213.71,199.268 1207.67,195.052 1201.87,190.52C1199.13,188.352 1196.58,185.953 1194.25,183.35C1193.14,182.113 1192.2,180.726 1191.47,179.23C1197.03,176.23 1212.24,178.46 1218.37,179.62C1222.73,180.5 1227.17,181.54 1231.65,182.72C1232.58,181.72 1233.54,180.81 1234.54,179.93L1235.32,179.25C1235.99,178.697 1236.65,178.167 1237.32,177.66C1227.94,173.843 1218.29,170.718 1208.45,168.31C1199.45,166.43 1184.93,163.75 1179.31,173.76C1172.8,186.76 1191.31,203.51 1200.01,211.22C1206.04,216.386 1212.37,221.203 1218.95,225.65C1226.06,230.49 1233.42,234.94 1240.95,239.11C1251.68,245.161 1262.91,250.296 1274.51,254.46C1279.97,256.353 1285.51,258.02 1291.13,259.46C1301.62,262.148 1312.33,263.938 1323.13,264.81C1331.28,265.23 1346.21,266.25 1350.5,257.25C1356.6,243.44 1327.68,225.63 1317.74,219.21Z" style="fill:rgb(115,99,87);fill-rule:nonzero;"/>
            <path d="M1653.22,72.6C1653.22,74.317 1651.81,75.73 1650.09,75.73C1648.37,75.73 1646.96,74.317 1646.96,72.6C1646.96,70.883 1648.37,69.47 1650.09,69.47C1651.81,69.47 1653.22,70.883 1653.22,72.6ZM544.81,302.36C544.81,304.077 543.397,305.49 541.68,305.49C539.963,305.49 538.55,304.077 538.55,302.36C538.55,300.643 539.963,299.23 541.68,299.23C543.397,299.23 544.81,300.643 544.81,302.36ZM12.18,39.38C12.18,41.097 10.767,42.51 9.05,42.51C7.333,42.51 5.92,41.097 5.92,39.38C5.92,37.663 7.333,36.25 9.05,36.25C10.767,36.25 12.18,37.663 12.18,39.38ZM1227.23,16.68C1227.23,18.397 1225.82,19.81 1224.1,19.81C1222.38,19.81 1220.97,18.397 1220.97,16.68C1220.97,14.963 1222.38,13.55 1224.1,13.55C1225.82,13.55 1227.23,14.963 1227.23,16.68ZM716.41,366.82C716.41,368.537 714.997,369.95 713.28,369.95C711.563,369.95 710.15,368.537 710.15,366.82C710.15,365.103 711.563,363.69 713.28,363.69C714.997,363.69 716.41,365.103 716.41,366.82ZM1447.69,81.32C1446.83,81.32 1446.12,82.029 1446.12,82.89C1446.12,83.751 1446.83,84.46 1447.69,84.46C1448.55,84.46 1449.26,83.751 1449.26,82.89L1449.26,82.88C1449.26,82.024 1448.56,81.32 1447.7,81.32C1447.7,81.32 1447.69,81.32 1447.69,81.32ZM164.91,323.77C164.058,323.775 163.36,324.478 163.36,325.33C163.36,326.186 164.064,326.89 164.92,326.89C165.776,326.89 166.48,326.186 166.48,325.33C166.48,325.33 166.48,325.33 166.48,325.33C166.48,324.474 165.776,323.77 164.92,323.77C164.917,323.77 164.913,323.77 164.91,323.77ZM1.56,354.51C0.708,354.515 0.01,355.218 0.01,356.07C0.01,356.926 0.714,357.63 1.57,357.63C2.426,357.63 3.13,356.926 3.13,356.07C3.13,356.07 3.13,356.07 3.13,356.07C3.13,355.214 2.426,354.51 1.57,354.51C1.567,354.51 1.563,354.51 1.56,354.51ZM754,0C753.451,0 753,0.451 753,1C753,1.549 753.451,2 754,2C754.549,2 755,1.549 755,1C755,0.451 754.549,0 754,0ZM9.05,262.93C8.501,262.93 8.05,263.381 8.05,263.93C8.05,264.479 8.501,264.93 9.05,264.93C9.599,264.93 10.05,264.479 10.05,263.93C10.05,263.381 9.599,262.93 9.05,262.93ZM488.36,35.29C487.926,35.408 487.622,35.805 487.622,36.255C487.622,36.705 487.926,37.102 488.36,37.22C488.445,37.243 488.534,37.255 488.622,37.255C489.171,37.255 489.622,36.804 489.622,36.255C489.622,35.706 489.171,35.255 488.622,35.255C488.534,35.255 488.445,35.267 488.36,35.29ZM1022.36,10.15C1021.81,10.15 1021.36,10.601 1021.36,11.15C1021.36,11.699 1021.81,12.15 1022.36,12.15C1022.91,12.15 1023.36,11.699 1023.36,11.15C1023.36,11.15 1023.36,11.15 1023.36,11.15C1023.36,10.601 1022.91,10.15 1022.36,10.15C1022.35,10.15 1022.35,10.15 1022.34,10.15L1022.36,10.15ZM644.71,250.57C644.161,250.57 643.71,251.021 643.71,251.57C643.71,252.119 644.161,252.57 644.71,252.57C645.259,252.57 645.71,252.119 645.71,251.57C645.71,251.021 645.259,250.57 644.71,250.57ZM327.26,315.9C326.711,315.9 326.26,316.351 326.26,316.9C326.26,317.449 326.711,317.9 327.26,317.9C327.809,317.9 328.26,317.449 328.26,316.9C328.26,316.351 327.809,315.9 327.26,315.9ZM1135.75,333.24C1134.9,333.245 1134.2,333.948 1134.2,334.8C1134.2,335.656 1134.9,336.36 1135.76,336.36C1136.62,336.36 1137.32,335.656 1137.32,334.8C1137.32,334.8 1137.32,334.8 1137.32,334.8C1137.32,333.944 1136.62,333.24 1135.76,333.24C1135.76,333.24 1135.75,333.24 1135.75,333.24ZM1671.32,356.07C1670.46,356.07 1669.76,356.774 1669.76,357.63C1669.76,358.486 1670.46,359.19 1671.32,359.19C1672.18,359.19 1672.88,358.486 1672.88,357.63C1672.88,356.774 1672.18,356.07 1671.32,356.07Z" style="fill:url(#_Linear1);fill-rule:nonzero;"/>
        </g>
    </g>
    <defs>
        <linearGradient id="_Linear1" x1="0" y1="0" x2="1" y2="0" gradientUnits="userSpaceOnUse" gradientTransform="matrix(1672.88,0,0,1672.88,0,184.97)"><stop offset="0" style="stop-color:rgb(245,180,36);stop-opacity:1"/><stop offset="0.1" style="stop-color:rgb(252,238,33);stop-opacity:0.4"/><stop offset="0.2" style="stop-color:rgb(245,180,36);stop-opacity:1"/><stop offset="0.3" style="stop-color:rgb(252,238,33);stop-opacity:0.4"/><stop offset="0.4" style="stop-color:rgb(245,180,36);stop-opacity:1"/><stop offset="0.5" style="stop-color:rgb(252,238,33);stop-opacity:0.4"/><stop offset="0.6" style="stop-color:rgb(245,180,36);stop-opacity:1"/><stop offset="0.7" style="stop-color:rgb(252,238,33);stop-opacity:0.4"/><stop offset="0.8" style="stop-color:rgb(245,180,36);stop-opacity:1"/><stop offset="0.9" style="stop-color:rgb(252,238,33);stop-opacity:0.4"/><stop offset="1" style="stop-color:rgb(245,180,36);stop-opacity:1"/></linearGradient>
    </defs>
</svg>
