<?xml version="1.0" encoding="UTF-8" standalone="no"?>
<!DOCTYPE svg PUBLIC "-//W3C//DTD SVG 1.1//EN" "http://www.w3.org/Graphics/SVG/1.1/DTD/svg11.dtd">
<svg width="100%" height="100%" viewBox="0 0 207 227" version="1.1" xmlns="http://www.w3.org/2000/svg" xmlns:xlink="http://www.w3.org/1999/xlink" xml:space="preserve" xmlns:serif="http://www.serif.com/" style="fill-rule:evenodd;clip-rule:evenodd;stroke-linejoin:round;stroke-miterlimit:2;">
    <g id="Capa_2" transform="matrix(1,0,0,1,-1358,-154)">
        <g id="Used">
            <path d="M1410.89,273.56C1414.02,273.56 1416.59,270.987 1416.59,267.86L1416.59,234.47C1409.3,244.137 1405.31,255.894 1405.2,268C1405.28,271.068 1407.82,273.55 1410.89,273.56Z" style="fill:rgb(122,163,203);fill-rule:nonzero;"/>
            <path d="M1455.62,237.57C1458.74,237.57 1461.32,235.003 1461.32,231.88L1461.32,212.72C1461.32,212.428 1461.29,212.137 1461.24,211.85C1457.43,211.889 1453.64,212.315 1449.92,213.12L1449.92,231.88C1449.92,235.003 1452.5,237.57 1455.62,237.57Z" style="fill:rgb(122,163,203);fill-rule:nonzero;"/>
            <path d="M1467.64,273.56C1464.51,273.56 1461.94,276.133 1461.94,279.26L1461.94,325.33C1465.77,325.33 1469.59,324.945 1473.34,324.18L1473.34,279.26C1473.34,276.133 1470.77,273.56 1467.64,273.56Z" style="fill:rgb(122,163,203);fill-rule:nonzero;"/>
            <path d="M1461.24,211.85C1461.29,212.137 1461.32,212.428 1461.32,212.72L1461.32,231.88C1461.32,235.007 1458.75,237.58 1455.62,237.58C1452.49,237.58 1449.92,235.007 1449.92,231.88L1449.92,213.12C1436.61,216.006 1424.78,223.587 1416.59,234.47L1416.59,267.86C1416.51,270.926 1413.96,273.402 1410.89,273.402C1407.88,273.402 1405.36,271.01 1405.2,268L1405.2,268.59C1405.2,299.717 1430.81,325.33 1461.94,325.33C1461.94,325.33 1461.94,279.26 1461.94,279.26C1461.94,276.133 1464.51,273.56 1467.64,273.56C1470.77,273.56 1473.34,276.133 1473.34,279.26L1473.34,324.18C1487.04,321.369 1499.22,313.595 1507.54,302.36L1507.54,267.61C1507.54,264.483 1510.11,261.91 1513.24,261.91C1515.66,261.906 1517.82,263.446 1518.61,265.73C1517.12,235.707 1492,211.819 1461.94,211.84L1461.24,211.85Z" style="fill:rgb(82,116,140);fill-rule:nonzero;"/>
            <path d="M1513.24,261.91C1510.11,261.91 1507.54,264.483 1507.54,267.61L1507.54,302.36C1514.79,292.595 1518.7,280.744 1518.68,268.58C1518.68,267.63 1518.68,266.67 1518.61,265.73C1517.82,263.446 1515.66,261.906 1513.24,261.91Z" style="fill:rgb(122,163,203);fill-rule:nonzero;"/>
            <path d="M1464.32,176.69C1464.43,176.74 1464.56,176.69 1464.63,176.62C1464.68,176.616 1464.73,176.581 1464.75,176.53C1463.63,176.84 1462.65,177.92 1461.41,179.42C1453.99,189.5 1450.66,201.72 1447.41,214.13C1439.29,249.01 1440.17,286.91 1447.58,321.83C1450.63,334.25 1453.81,346.6 1461.28,356.64C1462.52,358.11 1463.62,359.28 1464.71,359.49C1464.71,359.44 1464.65,359.39 1464.6,359.39C1464.55,359.39 1464.4,359.26 1464.29,359.3C1464.18,359.34 1464.04,359.25 1463.95,359.24C1463.86,359.23 1463.77,359.24 1463.77,359.24C1465.85,356.898 1467.52,354.216 1468.69,351.31C1482.2,317.37 1480.87,264.79 1477.83,228.17C1476.32,213.6 1473.56,187.93 1464.14,177.17C1463.85,176.89 1463.72,176.82 1463.79,176.75C1463.84,176.781 1463.9,176.781 1463.95,176.75C1464.04,176.75 1464.18,176.75 1464.29,176.7L1464.32,176.69ZM1464.32,155.41C1479.02,155.47 1487.61,169.85 1492.82,181.47C1504.53,209.01 1508.29,238.68 1508.19,268C1507.61,297.12 1504.37,327.23 1492.92,354.56C1487.57,367.22 1476.7,383.46 1460.56,380.13C1420.16,370.72 1426.03,244.21 1431.36,211.13C1434.17,192.76 1440.54,156.62 1464.36,155.45L1464.32,155.41Z" style="fill:rgb(122,163,203);fill-rule:nonzero;"/>
            <path d="M1446.13,323.1L1446.13,214.1C1437.16,216.704 1428.97,221.479 1422.29,228L1422.29,309.19C1428.97,315.715 1437.16,320.493 1446.13,323.1Z" style="fill:rgb(82,116,140);fill-rule:nonzero;"/>
            <path d="M1653.22,72.6C1653.22,74.317 1651.81,75.73 1650.09,75.73C1648.37,75.73 1646.96,74.317 1646.96,72.6C1646.96,70.883 1648.37,69.47 1650.09,69.47C1651.81,69.47 1653.22,70.883 1653.22,72.6ZM544.81,302.36C544.81,304.077 543.397,305.49 541.68,305.49C539.963,305.49 538.55,304.077 538.55,302.36C538.55,300.643 539.963,299.23 541.68,299.23C543.397,299.23 544.81,300.643 544.81,302.36ZM12.18,39.38C12.18,41.097 10.767,42.51 9.05,42.51C7.333,42.51 5.92,41.097 5.92,39.38C5.92,37.663 7.333,36.25 9.05,36.25C10.767,36.25 12.18,37.663 12.18,39.38ZM1227.23,16.68C1227.23,18.397 1225.82,19.81 1224.1,19.81C1222.38,19.81 1220.97,18.397 1220.97,16.68C1220.97,14.963 1222.38,13.55 1224.1,13.55C1225.82,13.55 1227.23,14.963 1227.23,16.68ZM716.41,366.82C716.41,368.537 714.997,369.95 713.28,369.95C711.563,369.95 710.15,368.537 710.15,366.82C710.15,365.103 711.563,363.69 713.28,363.69C714.997,363.69 716.41,365.103 716.41,366.82ZM1447.69,81.32C1446.83,81.32 1446.12,82.029 1446.12,82.89C1446.12,83.751 1446.83,84.46 1447.69,84.46C1448.55,84.46 1449.26,83.751 1449.26,82.89L1449.26,82.88C1449.26,82.024 1448.56,81.32 1447.7,81.32C1447.7,81.32 1447.69,81.32 1447.69,81.32ZM164.91,323.77C164.058,323.775 163.36,324.478 163.36,325.33C163.36,326.186 164.064,326.89 164.92,326.89C165.776,326.89 166.48,326.186 166.48,325.33C166.48,325.33 166.48,325.33 166.48,325.33C166.48,324.474 165.776,323.77 164.92,323.77C164.917,323.77 164.913,323.77 164.91,323.77ZM1.56,354.51C0.708,354.515 0.01,355.218 0.01,356.07C0.01,356.926 0.714,357.63 1.57,357.63C2.426,357.63 3.13,356.926 3.13,356.07C3.13,356.07 3.13,356.07 3.13,356.07C3.13,355.214 2.426,354.51 1.57,354.51C1.567,354.51 1.563,354.51 1.56,354.51ZM754,0C753.451,0 753,0.451 753,1C753,1.549 753.451,2 754,2C754.549,2 755,1.549 755,1C755,0.451 754.549,0 754,0ZM9.05,262.93C8.501,262.93 8.05,263.381 8.05,263.93C8.05,264.479 8.501,264.93 9.05,264.93C9.599,264.93 10.05,264.479 10.05,263.93C10.05,263.381 9.599,262.93 9.05,262.93ZM488.36,35.29C487.926,35.408 487.622,35.805 487.622,36.255C487.622,36.705 487.926,37.102 488.36,37.22C488.445,37.243 488.534,37.255 488.622,37.255C489.171,37.255 489.622,36.804 489.622,36.255C489.622,35.706 489.171,35.255 488.622,35.255C488.534,35.255 488.445,35.267 488.36,35.29ZM1022.36,10.15C1021.81,10.15 1021.36,10.601 1021.36,11.15C1021.36,11.699 1021.81,12.15 1022.36,12.15C1022.91,12.15 1023.36,11.699 1023.36,11.15C1023.36,11.15 1023.36,11.15 1023.36,11.15C1023.36,10.601 1022.91,10.15 1022.36,10.15C1022.35,10.15 1022.35,10.15 1022.34,10.15L1022.36,10.15ZM644.71,250.57C644.161,250.57 643.71,251.021 643.71,251.57C643.71,252.119 644.161,252.57 644.71,252.57C645.259,252.57 645.71,252.119 645.71,251.57C645.71,251.021 645.259,250.57 644.71,250.57ZM327.26,315.9C326.711,315.9 326.26,316.351 326.26,316.9C326.26,317.449 326.711,317.9 327.26,317.9C327.809,317.9 328.26,317.449 328.26,316.9C328.26,316.351 327.809,315.9 327.26,315.9ZM1135.75,333.24C1134.9,333.245 1134.2,333.948 1134.2,334.8C1134.2,335.656 1134.9,336.36 1135.76,336.36C1136.62,336.36 1137.32,335.656 1137.32,334.8C1137.32,334.8 1137.32,334.8 1137.32,334.8C1137.32,333.944 1136.62,333.24 1135.76,333.24C1135.76,333.24 1135.75,333.24 1135.75,333.24ZM1671.32,356.07C1670.46,356.07 1669.76,356.774 1669.76,357.63C1669.76,358.486 1670.46,359.19 1671.32,359.19C1672.18,359.19 1672.88,358.486 1672.88,357.63C1672.88,356.774 1672.18,356.07 1671.32,356.07Z" style="fill:url(#_Linear1);fill-rule:nonzero;"/>
        </g>
    </g>
    <defs>
        <linearGradient id="_Linear1" x1="0" y1="0" x2="1" y2="0" gradientUnits="userSpaceOnUse" gradientTransform="matrix(1672.88,0,0,1672.88,0,184.97)"><stop offset="0" style="stop-color:rgb(245,180,36);stop-opacity:1"/><stop offset="0.1" style="stop-color:rgb(252,238,33);stop-opacity:0.4"/><stop offset="0.2" style="stop-color:rgb(245,180,36);stop-opacity:1"/><stop offset="0.3" style="stop-color:rgb(252,238,33);stop-opacity:0.4"/><stop offset="0.4" style="stop-color:rgb(245,180,36);stop-opacity:1"/><stop offset="0.5" style="stop-color:rgb(252,238,33);stop-opacity:0.4"/><stop offset="0.6" style="stop-color:rgb(245,180,36);stop-opacity:1"/><stop offset="0.7" style="stop-color:rgb(252,238,33);stop-opacity:0.4"/><stop offset="0.8" style="stop-color:rgb(245,180,36);stop-opacity:1"/><stop offset="0.9" style="stop-color:rgb(252,238,33);stop-opacity:0.4"/><stop offset="1" style="stop-color:rgb(245,180,36);stop-opacity:1"/></linearGradient>
    </defs>
</svg>
