<?xml version="1.0" encoding="UTF-8" standalone="no"?>
<!DOCTYPE svg PUBLIC "-//W3C//DTD SVG 1.1//EN" "http://www.w3.org/Graphics/SVG/1.1/DTD/svg11.dtd">
<svg width="100%" height="100%" viewBox="0 0 92 91" version="1.1" xmlns="http://www.w3.org/2000/svg" xmlns:xlink="http://www.w3.org/1999/xlink" xml:space="preserve" xmlns:serif="http://www.serif.com/" style="fill-rule:evenodd;clip-rule:evenodd;stroke-linejoin:round;stroke-miterlimit:2;">
    <g id="Capa_2" transform="matrix(1,0,0,1,-509,-105)">
        <g id="Used">
            <path d="M549.23,121.31C549.225,121.26 549.225,121.21 549.23,121.16C549.622,118.359 552.042,116.252 554.87,116.25L585,116.25C576.978,109.158 566.704,105.123 556,104.86L553.65,104.86C528.988,105.359 508.972,125.783 508.972,150.451C508.972,175.466 529.557,196.051 554.572,196.051C554.655,196.051 554.737,196.05 554.82,196.05L556.51,196.05L556.12,196.05C564.589,195.819 572.827,193.224 579.9,188.56C579.869,188.485 579.842,188.408 579.82,188.33C578.977,186.131 576.855,184.671 574.5,184.67L556.5,184.67C556.303,184.68 556.107,184.68 555.91,184.67L555.72,184.67L555.34,184.61C555.269,184.595 555.199,184.575 555.13,184.55L554.8,184.47L554.57,184.39C554.47,184.39 554.37,184.32 554.27,184.27L554.04,184.17L553.77,184.03L553.56,183.9C553.47,183.853 553.383,183.799 553.3,183.74C553.23,183.74 553.16,183.64 553.09,183.59C553.02,183.54 552.93,183.48 552.86,183.41C552.792,183.359 552.729,183.302 552.67,183.24L552.45,183.04L552.28,182.85C552.22,182.78 552.15,182.71 552.09,182.63C552.031,182.568 551.978,182.501 551.93,182.43L551.76,182.19L551.62,181.97L551.47,181.72L551.36,181.48C551.36,181.39 551.27,181.31 551.24,181.22L551.14,180.97C551.14,180.87 551.07,180.78 551.05,180.69C551.03,180.6 551,180.51 550.98,180.43C550.96,180.35 550.98,180.24 550.91,180.14C550.905,180.05 550.905,179.96 550.91,179.87L550.91,178.39C550.905,178.34 550.905,178.29 550.91,178.24C551.302,175.439 553.722,173.332 556.55,173.33L556.75,173.33C557.077,173.28 557.319,172.991 557.31,172.66C555.699,171.814 554.584,170.249 554.31,168.45C554.316,168.407 554.316,168.363 554.31,168.32L554.31,167.63C554.31,164.503 556.883,161.93 560.01,161.93L560.21,161.93C561.11,161.858 561.812,161.098 561.812,160.195C561.812,160.028 561.788,159.861 561.74,159.7C561.159,158.958 560.777,158.08 560.63,157.15C560.625,157.06 560.625,156.97 560.63,156.88L560.63,156C560.625,155.933 560.625,155.867 560.63,155.8L560.63,155.5C560.624,155.427 560.624,155.353 560.63,155.28C560.63,155.15 560.63,155.02 560.7,154.89C560.77,154.76 560.7,154.89 560.7,154.83C561.316,152.286 563.612,150.48 566.23,150.48L574.54,150.48C574.733,150.49 574.927,150.49 575.12,150.48L575.32,150.48C575.44,150.48 575.57,150.48 575.69,150.42L575.91,150.36L576.24,150.28L576.46,150.2L576.76,150.09L576.99,149.98L577.26,149.84L577.48,149.71L577.74,149.56L577.94,149.4C578.02,149.34 578.1,149.29 578.18,149.22L578.36,149.05C578.438,148.989 578.512,148.922 578.58,148.85C578.642,148.791 578.699,148.728 578.75,148.66L578.95,148.45L579.1,148.24L579.28,148L579.41,147.78L579.56,147.53L579.68,147.29L579.8,147.03L579.89,146.78C579.89,146.68 579.96,146.59 579.99,146.5C580.009,146.412 580.032,146.325 580.06,146.24C580.06,146.14 580.11,146.05 580.13,145.95C580.125,145.86 580.125,145.77 580.13,145.68L580.13,145.38C580.135,145.287 580.135,145.193 580.13,145.1L580.13,144.2C580.125,144.15 580.125,144.1 580.13,144.05C579.651,141.212 577.158,139.119 574.28,139.14L566.6,139.14C563.473,139.14 560.9,136.567 560.9,133.44L560.9,133.17C561.011,130.435 558.918,128.067 556.19,127.84L554.87,127.74C554.673,127.75 554.477,127.75 554.28,127.74L554.09,127.74L553.71,127.68L553.49,127.62L553.17,127.54L552.94,127.46L552.64,127.35L552.14,127.1L551.92,126.97L551.67,126.82C551.599,126.772 551.532,126.719 551.47,126.66C551.386,126.609 551.306,126.552 551.23,126.49L551.04,126.32L550.82,126.11L550.65,125.93C550.59,125.85 550.52,125.78 550.46,125.71L550.3,125.5L550.13,125.26L549.99,125.04L549.84,124.79L549.73,124.55C549.684,124.466 549.644,124.379 549.61,124.29C549.572,124.208 549.539,124.125 549.51,124.04C549.51,123.95 549.44,123.85 549.42,123.76C549.392,123.675 549.369,123.588 549.35,123.5C549.35,123.4 549.35,123.31 549.28,123.21C549.275,123.12 549.275,123.03 549.28,122.94C549.27,122.84 549.27,122.74 549.28,122.64L549.28,121.79C549.28,121.71 549.21,121.42 549.23,121.31Z" style="fill:rgb(224,158,99);fill-rule:nonzero;"/>
            <path d="M599,139.05C596.717,130.223 591.839,122.28 585,116.25L554.9,116.25C552.072,116.252 549.652,118.359 549.26,121.16C549.255,121.21 549.255,121.26 549.26,121.31L549.26,122.54C549.25,122.64 549.25,122.74 549.26,122.84C549.255,122.93 549.255,123.02 549.26,123.11C549.26,123.21 549.26,123.3 549.33,123.4C549.349,123.488 549.372,123.575 549.4,123.66C549.4,123.75 549.46,123.85 549.49,123.94C549.519,124.025 549.552,124.108 549.59,124.19C549.624,124.279 549.664,124.366 549.71,124.45L549.82,124.69L549.97,124.94L550.11,125.16L550.28,125.4L550.44,125.61C550.5,125.68 550.57,125.75 550.63,125.83L550.8,126.01L551.02,126.22L551.21,126.39C551.286,126.452 551.366,126.509 551.45,126.56C551.512,126.619 551.579,126.672 551.65,126.72L551.9,126.87L552.12,127L552.62,127.25L552.92,127.36L553.15,127.44L553.47,127.52L553.69,127.58L554.07,127.64L554.26,127.64C554.457,127.65 554.653,127.65 554.85,127.64L556.17,127.74C558.898,127.967 560.991,130.335 560.88,133.07L560.88,133.34C560.88,136.467 563.453,139.04 566.58,139.04L574.26,139.04C577.138,139.019 579.631,141.112 580.11,143.95C580.105,144 580.105,144.05 580.11,144.1L580.11,145C580.115,145.093 580.115,145.187 580.11,145.28L580.11,145.58C580.105,145.67 580.105,145.76 580.11,145.85C580.11,145.95 580.06,146.04 580.04,146.14C580.012,146.225 579.989,146.312 579.97,146.4C579.97,146.49 579.9,146.58 579.87,146.68L579.78,146.93L579.66,147.19L579.54,147.43L579.39,147.68L579.26,147.9L579.08,148.14L578.93,148.35L578.73,148.56C578.679,148.628 578.622,148.691 578.56,148.75C578.492,148.822 578.418,148.889 578.34,148.95L578.16,149.12C578.08,149.19 578,149.24 577.92,149.3L577.72,149.46L577.46,149.61L577.24,149.74L576.97,149.88L576.74,149.99L576.44,150.1L576.22,150.18L575.89,150.26L575.67,150.32C575.55,150.32 575.42,150.32 575.3,150.38L575.1,150.38C574.907,150.39 574.713,150.39 574.52,150.38L566.2,150.38C563.582,150.38 561.286,152.186 560.67,154.73C560.054,157.274 560.67,154.73 560.67,154.79C560.67,154.85 560.67,155.05 560.6,155.18C560.53,155.31 560.6,155.32 560.6,155.4L560.6,155.7C560.595,155.767 560.595,155.833 560.6,155.9L560.6,157C560.747,157.93 561.129,158.808 561.71,159.55C561.758,159.711 561.782,159.878 561.782,160.045C561.782,160.948 561.08,161.708 560.18,161.78L560,161.78C556.873,161.78 554.3,164.353 554.3,167.48L554.3,168.17C554.306,168.213 554.306,168.257 554.3,168.3C554.574,170.099 555.689,171.664 557.3,172.51C557.309,172.841 557.067,173.13 556.74,173.18L556.54,173.18C553.712,173.182 551.292,175.289 550.9,178.09C550.895,178.14 550.895,178.19 550.9,178.24L550.9,179.84C550.895,179.93 550.895,180.02 550.9,180.11C550.9,180.21 550.9,180.3 550.97,180.4C551.04,180.5 550.97,180.57 551.04,180.66C551.11,180.75 551.1,180.84 551.13,180.94L551.23,181.19C551.23,181.28 551.31,181.36 551.35,181.45L551.46,181.69L551.61,181.94L551.75,182.16L551.92,182.4C551.968,182.471 552.021,182.538 552.08,182.6C552.14,182.68 552.21,182.75 552.27,182.82L552.44,183.01L552.66,183.21C552.719,183.272 552.782,183.329 552.85,183.38C552.92,183.45 553.01,183.5 553.08,183.56C553.15,183.62 553.22,183.67 553.29,183.71C553.373,183.769 553.46,183.823 553.55,183.87L553.76,184L554.03,184.14L554.26,184.24C554.36,184.29 554.46,184.32 554.56,184.36L554.79,184.44L555.12,184.52C555.189,184.545 555.259,184.565 555.33,184.58L555.71,184.64L555.9,184.64C556.097,184.65 556.293,184.65 556.49,184.64L574.49,184.64C576.845,184.641 578.967,186.101 579.81,188.3C579.832,188.378 579.859,188.455 579.89,188.53C581.67,187.351 583.367,186.051 584.97,184.64C591.809,178.61 596.687,170.667 598.97,161.84C600.876,154.36 600.876,146.52 598.97,139.04L599,139.05Z" style="fill:rgb(168,125,82);fill-rule:nonzero;"/>
            <path d="M1653.22,72.6C1653.22,74.317 1651.81,75.73 1650.09,75.73C1648.37,75.73 1646.96,74.317 1646.96,72.6C1646.96,70.883 1648.37,69.47 1650.09,69.47C1651.81,69.47 1653.22,70.883 1653.22,72.6ZM544.81,302.36C544.81,304.077 543.397,305.49 541.68,305.49C539.963,305.49 538.55,304.077 538.55,302.36C538.55,300.643 539.963,299.23 541.68,299.23C543.397,299.23 544.81,300.643 544.81,302.36ZM12.18,39.38C12.18,41.097 10.767,42.51 9.05,42.51C7.333,42.51 5.92,41.097 5.92,39.38C5.92,37.663 7.333,36.25 9.05,36.25C10.767,36.25 12.18,37.663 12.18,39.38ZM1227.23,16.68C1227.23,18.397 1225.82,19.81 1224.1,19.81C1222.38,19.81 1220.97,18.397 1220.97,16.68C1220.97,14.963 1222.38,13.55 1224.1,13.55C1225.82,13.55 1227.23,14.963 1227.23,16.68ZM716.41,366.82C716.41,368.537 714.997,369.95 713.28,369.95C711.563,369.95 710.15,368.537 710.15,366.82C710.15,365.103 711.563,363.69 713.28,363.69C714.997,363.69 716.41,365.103 716.41,366.82ZM1447.69,81.32C1446.83,81.32 1446.12,82.029 1446.12,82.89C1446.12,83.751 1446.83,84.46 1447.69,84.46C1448.55,84.46 1449.26,83.751 1449.26,82.89L1449.26,82.88C1449.26,82.024 1448.56,81.32 1447.7,81.32C1447.7,81.32 1447.69,81.32 1447.69,81.32ZM164.91,323.77C164.058,323.775 163.36,324.478 163.36,325.33C163.36,326.186 164.064,326.89 164.92,326.89C165.776,326.89 166.48,326.186 166.48,325.33C166.48,325.33 166.48,325.33 166.48,325.33C166.48,324.474 165.776,323.77 164.92,323.77C164.917,323.77 164.913,323.77 164.91,323.77ZM1.56,354.51C0.708,354.515 0.01,355.218 0.01,356.07C0.01,356.926 0.714,357.63 1.57,357.63C2.426,357.63 3.13,356.926 3.13,356.07C3.13,356.07 3.13,356.07 3.13,356.07C3.13,355.214 2.426,354.51 1.57,354.51C1.567,354.51 1.563,354.51 1.56,354.51ZM754,0C753.451,0 753,0.451 753,1C753,1.549 753.451,2 754,2C754.549,2 755,1.549 755,1C755,0.451 754.549,0 754,0ZM9.05,262.93C8.501,262.93 8.05,263.381 8.05,263.93C8.05,264.479 8.501,264.93 9.05,264.93C9.599,264.93 10.05,264.479 10.05,263.93C10.05,263.381 9.599,262.93 9.05,262.93ZM488.36,35.29C487.926,35.408 487.622,35.805 487.622,36.255C487.622,36.705 487.926,37.102 488.36,37.22C488.445,37.243 488.534,37.255 488.622,37.255C489.171,37.255 489.622,36.804 489.622,36.255C489.622,35.706 489.171,35.255 488.622,35.255C488.534,35.255 488.445,35.267 488.36,35.29ZM1022.36,10.15C1021.81,10.15 1021.36,10.601 1021.36,11.15C1021.36,11.699 1021.81,12.15 1022.36,12.15C1022.91,12.15 1023.36,11.699 1023.36,11.15C1023.36,11.15 1023.36,11.15 1023.36,11.15C1023.36,10.601 1022.91,10.15 1022.36,10.15C1022.35,10.15 1022.35,10.15 1022.34,10.15L1022.36,10.15ZM644.71,250.57C644.161,250.57 643.71,251.021 643.71,251.57C643.71,252.119 644.161,252.57 644.71,252.57C645.259,252.57 645.71,252.119 645.71,251.57C645.71,251.021 645.259,250.57 644.71,250.57ZM327.26,315.9C326.711,315.9 326.26,316.351 326.26,316.9C326.26,317.449 326.711,317.9 327.26,317.9C327.809,317.9 328.26,317.449 328.26,316.9C328.26,316.351 327.809,315.9 327.26,315.9ZM1135.75,333.24C1134.9,333.245 1134.2,333.948 1134.2,334.8C1134.2,335.656 1134.9,336.36 1135.76,336.36C1136.62,336.36 1137.32,335.656 1137.32,334.8C1137.32,334.8 1137.32,334.8 1137.32,334.8C1137.32,333.944 1136.62,333.24 1135.76,333.24C1135.76,333.24 1135.75,333.24 1135.75,333.24ZM1671.32,356.07C1670.46,356.07 1669.76,356.774 1669.76,357.63C1669.76,358.486 1670.46,359.19 1671.32,359.19C1672.18,359.19 1672.88,358.486 1672.88,357.63C1672.88,356.774 1672.18,356.07 1671.32,356.07Z" style="fill:url(#_Linear1);fill-rule:nonzero;"/>
        </g>
    </g>
    <defs>
        <linearGradient id="_Linear1" x1="0" y1="0" x2="1" y2="0" gradientUnits="userSpaceOnUse" gradientTransform="matrix(1672.88,0,0,1672.88,0,184.97)"><stop offset="0" style="stop-color:rgb(245,180,36);stop-opacity:1"/><stop offset="0.1" style="stop-color:rgb(252,238,33);stop-opacity:0.4"/><stop offset="0.2" style="stop-color:rgb(245,180,36);stop-opacity:1"/><stop offset="0.3" style="stop-color:rgb(252,238,33);stop-opacity:0.4"/><stop offset="0.4" style="stop-color:rgb(245,180,36);stop-opacity:1"/><stop offset="0.5" style="stop-color:rgb(252,238,33);stop-opacity:0.4"/><stop offset="0.6" style="stop-color:rgb(245,180,36);stop-opacity:1"/><stop offset="0.7" style="stop-color:rgb(252,238,33);stop-opacity:0.4"/><stop offset="0.8" style="stop-color:rgb(245,180,36);stop-opacity:1"/><stop offset="0.9" style="stop-color:rgb(252,238,33);stop-opacity:0.4"/><stop offset="1" style="stop-color:rgb(245,180,36);stop-opacity:1"/></linearGradient>
    </defs>
</svg>
